G04 #@! TF.GenerationSoftware,KiCad,Pcbnew,(5.0.0)*
G04 #@! TF.CreationDate,2018-12-05T15:31:39-05:00*
G04 #@! TF.ProjectId,Christmas Ornament,4368726973746D6173204F726E616D65,rev?*
G04 #@! TF.SameCoordinates,Original*
G04 #@! TF.FileFunction,Legend,Top*
G04 #@! TF.FilePolarity,Positive*
%FSLAX46Y46*%
G04 Gerber Fmt 4.6, Leading zero omitted, Abs format (unit mm)*
G04 Created by KiCad (PCBNEW (5.0.0)) date 12/05/18 15:31:39*
%MOMM*%
%LPD*%
G01*
G04 APERTURE LIST*
%ADD10C,0.300000*%
%ADD11C,0.200000*%
%ADD12C,0.120000*%
%ADD13C,0.150000*%
G04 APERTURE END LIST*
D10*
X201720142Y-115984571D02*
X201720142Y-114484571D01*
X202220142Y-115556000D01*
X202720142Y-114484571D01*
X202720142Y-115984571D01*
X204005857Y-115913142D02*
X203863000Y-115984571D01*
X203577285Y-115984571D01*
X203434428Y-115913142D01*
X203363000Y-115770285D01*
X203363000Y-115198857D01*
X203434428Y-115056000D01*
X203577285Y-114984571D01*
X203863000Y-114984571D01*
X204005857Y-115056000D01*
X204077285Y-115198857D01*
X204077285Y-115341714D01*
X203363000Y-115484571D01*
X204720142Y-115984571D02*
X204720142Y-114984571D01*
X204720142Y-115270285D02*
X204791571Y-115127428D01*
X204863000Y-115056000D01*
X205005857Y-114984571D01*
X205148714Y-114984571D01*
X205648714Y-115984571D02*
X205648714Y-114984571D01*
X205648714Y-115270285D02*
X205720142Y-115127428D01*
X205791571Y-115056000D01*
X205934428Y-114984571D01*
X206077285Y-114984571D01*
X206434428Y-114984571D02*
X206791571Y-115984571D01*
X207148714Y-114984571D02*
X206791571Y-115984571D01*
X206648714Y-116341714D01*
X206577285Y-116413142D01*
X206434428Y-116484571D01*
X209720142Y-115841714D02*
X209648714Y-115913142D01*
X209434428Y-115984571D01*
X209291571Y-115984571D01*
X209077285Y-115913142D01*
X208934428Y-115770285D01*
X208863000Y-115627428D01*
X208791571Y-115341714D01*
X208791571Y-115127428D01*
X208863000Y-114841714D01*
X208934428Y-114698857D01*
X209077285Y-114556000D01*
X209291571Y-114484571D01*
X209434428Y-114484571D01*
X209648714Y-114556000D01*
X209720142Y-114627428D01*
X210363000Y-115984571D02*
X210363000Y-114484571D01*
X211005857Y-115984571D02*
X211005857Y-115198857D01*
X210934428Y-115056000D01*
X210791571Y-114984571D01*
X210577285Y-114984571D01*
X210434428Y-115056000D01*
X210363000Y-115127428D01*
X211720142Y-115984571D02*
X211720142Y-114984571D01*
X211720142Y-115270285D02*
X211791571Y-115127428D01*
X211863000Y-115056000D01*
X212005857Y-114984571D01*
X212148714Y-114984571D01*
X212648714Y-115984571D02*
X212648714Y-114984571D01*
X212648714Y-114484571D02*
X212577285Y-114556000D01*
X212648714Y-114627428D01*
X212720142Y-114556000D01*
X212648714Y-114484571D01*
X212648714Y-114627428D01*
X213291571Y-115913142D02*
X213434428Y-115984571D01*
X213720142Y-115984571D01*
X213863000Y-115913142D01*
X213934428Y-115770285D01*
X213934428Y-115698857D01*
X213863000Y-115556000D01*
X213720142Y-115484571D01*
X213505857Y-115484571D01*
X213363000Y-115413142D01*
X213291571Y-115270285D01*
X213291571Y-115198857D01*
X213363000Y-115056000D01*
X213505857Y-114984571D01*
X213720142Y-114984571D01*
X213863000Y-115056000D01*
X214363000Y-114984571D02*
X214934428Y-114984571D01*
X214577285Y-114484571D02*
X214577285Y-115770285D01*
X214648714Y-115913142D01*
X214791571Y-115984571D01*
X214934428Y-115984571D01*
X215434428Y-115984571D02*
X215434428Y-114984571D01*
X215434428Y-115127428D02*
X215505857Y-115056000D01*
X215648714Y-114984571D01*
X215863000Y-114984571D01*
X216005857Y-115056000D01*
X216077285Y-115198857D01*
X216077285Y-115984571D01*
X216077285Y-115198857D02*
X216148714Y-115056000D01*
X216291571Y-114984571D01*
X216505857Y-114984571D01*
X216648714Y-115056000D01*
X216720142Y-115198857D01*
X216720142Y-115984571D01*
X218077285Y-115984571D02*
X218077285Y-115198857D01*
X218005857Y-115056000D01*
X217863000Y-114984571D01*
X217577285Y-114984571D01*
X217434428Y-115056000D01*
X218077285Y-115913142D02*
X217934428Y-115984571D01*
X217577285Y-115984571D01*
X217434428Y-115913142D01*
X217363000Y-115770285D01*
X217363000Y-115627428D01*
X217434428Y-115484571D01*
X217577285Y-115413142D01*
X217934428Y-115413142D01*
X218077285Y-115341714D01*
X218720142Y-115913142D02*
X218863000Y-115984571D01*
X219148714Y-115984571D01*
X219291571Y-115913142D01*
X219363000Y-115770285D01*
X219363000Y-115698857D01*
X219291571Y-115556000D01*
X219148714Y-115484571D01*
X218934428Y-115484571D01*
X218791571Y-115413142D01*
X218720142Y-115270285D01*
X218720142Y-115198857D01*
X218791571Y-115056000D01*
X218934428Y-114984571D01*
X219148714Y-114984571D01*
X219291571Y-115056000D01*
X221791571Y-115984571D02*
X221791571Y-115198857D01*
X221720142Y-115056000D01*
X221577285Y-114984571D01*
X221291571Y-114984571D01*
X221148714Y-115056000D01*
X221791571Y-115913142D02*
X221648714Y-115984571D01*
X221291571Y-115984571D01*
X221148714Y-115913142D01*
X221077285Y-115770285D01*
X221077285Y-115627428D01*
X221148714Y-115484571D01*
X221291571Y-115413142D01*
X221648714Y-115413142D01*
X221791571Y-115341714D01*
X222505857Y-114984571D02*
X222505857Y-115984571D01*
X222505857Y-115127428D02*
X222577285Y-115056000D01*
X222720142Y-114984571D01*
X222934428Y-114984571D01*
X223077285Y-115056000D01*
X223148714Y-115198857D01*
X223148714Y-115984571D01*
X224505857Y-115984571D02*
X224505857Y-114484571D01*
X224505857Y-115913142D02*
X224363000Y-115984571D01*
X224077285Y-115984571D01*
X223934428Y-115913142D01*
X223863000Y-115841714D01*
X223791571Y-115698857D01*
X223791571Y-115270285D01*
X223863000Y-115127428D01*
X223934428Y-115056000D01*
X224077285Y-114984571D01*
X224363000Y-114984571D01*
X224505857Y-115056000D01*
X201720142Y-118534571D02*
X201720142Y-117034571D01*
X201720142Y-117748857D02*
X202577285Y-117748857D01*
X202577285Y-118534571D02*
X202577285Y-117034571D01*
X203934428Y-118534571D02*
X203934428Y-117748857D01*
X203863000Y-117606000D01*
X203720142Y-117534571D01*
X203434428Y-117534571D01*
X203291571Y-117606000D01*
X203934428Y-118463142D02*
X203791571Y-118534571D01*
X203434428Y-118534571D01*
X203291571Y-118463142D01*
X203220142Y-118320285D01*
X203220142Y-118177428D01*
X203291571Y-118034571D01*
X203434428Y-117963142D01*
X203791571Y-117963142D01*
X203934428Y-117891714D01*
X204648714Y-117534571D02*
X204648714Y-119034571D01*
X204648714Y-117606000D02*
X204791571Y-117534571D01*
X205077285Y-117534571D01*
X205220142Y-117606000D01*
X205291571Y-117677428D01*
X205363000Y-117820285D01*
X205363000Y-118248857D01*
X205291571Y-118391714D01*
X205220142Y-118463142D01*
X205077285Y-118534571D01*
X204791571Y-118534571D01*
X204648714Y-118463142D01*
X206005857Y-117534571D02*
X206005857Y-119034571D01*
X206005857Y-117606000D02*
X206148714Y-117534571D01*
X206434428Y-117534571D01*
X206577285Y-117606000D01*
X206648714Y-117677428D01*
X206720142Y-117820285D01*
X206720142Y-118248857D01*
X206648714Y-118391714D01*
X206577285Y-118463142D01*
X206434428Y-118534571D01*
X206148714Y-118534571D01*
X206005857Y-118463142D01*
X207220142Y-117534571D02*
X207577285Y-118534571D01*
X207934428Y-117534571D02*
X207577285Y-118534571D01*
X207434428Y-118891714D01*
X207363000Y-118963142D01*
X207220142Y-119034571D01*
X209648714Y-118534571D02*
X209648714Y-117034571D01*
X209648714Y-117748857D02*
X210505857Y-117748857D01*
X210505857Y-118534571D02*
X210505857Y-117034571D01*
X211434428Y-118534571D02*
X211291571Y-118463142D01*
X211220142Y-118391714D01*
X211148714Y-118248857D01*
X211148714Y-117820285D01*
X211220142Y-117677428D01*
X211291571Y-117606000D01*
X211434428Y-117534571D01*
X211648714Y-117534571D01*
X211791571Y-117606000D01*
X211863000Y-117677428D01*
X211934428Y-117820285D01*
X211934428Y-118248857D01*
X211863000Y-118391714D01*
X211791571Y-118463142D01*
X211648714Y-118534571D01*
X211434428Y-118534571D01*
X212791571Y-118534571D02*
X212648714Y-118463142D01*
X212577285Y-118320285D01*
X212577285Y-117034571D01*
X213363000Y-118534571D02*
X213363000Y-117534571D01*
X213363000Y-117034571D02*
X213291571Y-117106000D01*
X213363000Y-117177428D01*
X213434428Y-117106000D01*
X213363000Y-117034571D01*
X213363000Y-117177428D01*
X214720142Y-118534571D02*
X214720142Y-117034571D01*
X214720142Y-118463142D02*
X214577285Y-118534571D01*
X214291571Y-118534571D01*
X214148714Y-118463142D01*
X214077285Y-118391714D01*
X214005857Y-118248857D01*
X214005857Y-117820285D01*
X214077285Y-117677428D01*
X214148714Y-117606000D01*
X214291571Y-117534571D01*
X214577285Y-117534571D01*
X214720142Y-117606000D01*
X216077285Y-118534571D02*
X216077285Y-117748857D01*
X216005857Y-117606000D01*
X215863000Y-117534571D01*
X215577285Y-117534571D01*
X215434428Y-117606000D01*
X216077285Y-118463142D02*
X215934428Y-118534571D01*
X215577285Y-118534571D01*
X215434428Y-118463142D01*
X215363000Y-118320285D01*
X215363000Y-118177428D01*
X215434428Y-118034571D01*
X215577285Y-117963142D01*
X215934428Y-117963142D01*
X216077285Y-117891714D01*
X216648714Y-117534571D02*
X217005857Y-118534571D01*
X217363000Y-117534571D02*
X217005857Y-118534571D01*
X216863000Y-118891714D01*
X216791571Y-118963142D01*
X216648714Y-119034571D01*
X217863000Y-118463142D02*
X218005857Y-118534571D01*
X218291571Y-118534571D01*
X218434428Y-118463142D01*
X218505857Y-118320285D01*
X218505857Y-118248857D01*
X218434428Y-118106000D01*
X218291571Y-118034571D01*
X218077285Y-118034571D01*
X217934428Y-117963142D01*
X217863000Y-117820285D01*
X217863000Y-117748857D01*
X217934428Y-117606000D01*
X218077285Y-117534571D01*
X218291571Y-117534571D01*
X218434428Y-117606000D01*
X219148714Y-118391714D02*
X219220142Y-118463142D01*
X219148714Y-118534571D01*
X219077285Y-118463142D01*
X219148714Y-118391714D01*
X219148714Y-118534571D01*
X219148714Y-117963142D02*
X219077285Y-117106000D01*
X219148714Y-117034571D01*
X219220142Y-117106000D01*
X219148714Y-117963142D01*
X219148714Y-117034571D01*
X202863000Y-120513142D02*
X204005857Y-120513142D01*
X205148714Y-119584571D02*
X205148714Y-120656000D01*
X205077285Y-120870285D01*
X204934428Y-121013142D01*
X204720142Y-121084571D01*
X204577285Y-121084571D01*
X206505857Y-121084571D02*
X206505857Y-120298857D01*
X206434428Y-120156000D01*
X206291571Y-120084571D01*
X206005857Y-120084571D01*
X205863000Y-120156000D01*
X206505857Y-121013142D02*
X206363000Y-121084571D01*
X206005857Y-121084571D01*
X205863000Y-121013142D01*
X205791571Y-120870285D01*
X205791571Y-120727428D01*
X205863000Y-120584571D01*
X206005857Y-120513142D01*
X206363000Y-120513142D01*
X206505857Y-120441714D01*
X207863000Y-121013142D02*
X207720142Y-121084571D01*
X207434428Y-121084571D01*
X207291571Y-121013142D01*
X207220142Y-120941714D01*
X207148714Y-120798857D01*
X207148714Y-120370285D01*
X207220142Y-120227428D01*
X207291571Y-120156000D01*
X207434428Y-120084571D01*
X207720142Y-120084571D01*
X207863000Y-120156000D01*
X208720142Y-121084571D02*
X208577285Y-121013142D01*
X208505857Y-120941714D01*
X208434428Y-120798857D01*
X208434428Y-120370285D01*
X208505857Y-120227428D01*
X208577285Y-120156000D01*
X208720142Y-120084571D01*
X208934428Y-120084571D01*
X209077285Y-120156000D01*
X209148714Y-120227428D01*
X209220142Y-120370285D01*
X209220142Y-120798857D01*
X209148714Y-120941714D01*
X209077285Y-121013142D01*
X208934428Y-121084571D01*
X208720142Y-121084571D01*
X209863000Y-121084571D02*
X209863000Y-119584571D01*
X209863000Y-120156000D02*
X210005857Y-120084571D01*
X210291571Y-120084571D01*
X210434428Y-120156000D01*
X210505857Y-120227428D01*
X210577285Y-120370285D01*
X210577285Y-120798857D01*
X210505857Y-120941714D01*
X210434428Y-121013142D01*
X210291571Y-121084571D01*
X210005857Y-121084571D01*
X209863000Y-121013142D01*
D11*
X231140001Y-101599999D02*
G75*
G02X213360001Y-101599999I-8890001J50799999D01*
G01*
X246380000Y-125729999D02*
G75*
G02X198120001Y-125729999I-24130000J71119999D01*
G01*
X241300000Y-101600000D02*
X222250000Y-82550000D01*
X231140000Y-101600000D02*
X241300000Y-101600000D01*
X256540000Y-125730000D02*
X231140000Y-101600000D01*
X246380000Y-125730000D02*
X256540000Y-125730000D01*
X262890000Y-139700000D02*
X246380000Y-125730000D01*
X231140000Y-139700000D02*
X262890000Y-139700000D01*
X231140000Y-139700000D02*
X231140000Y-152400000D01*
X181610000Y-139700000D02*
X213360000Y-139700000D01*
X198120000Y-125730000D02*
X181610000Y-139700000D01*
X187960000Y-125730000D02*
X198120000Y-125730000D01*
X213360000Y-101600000D02*
X187960000Y-125730000D01*
X203200000Y-101600000D02*
X213360000Y-101600000D01*
X222250000Y-82550000D02*
X203200000Y-101600000D01*
X213360000Y-152400000D02*
X231140000Y-152400000D01*
X213360000Y-139700000D02*
X213360000Y-152400000D01*
D12*
G04 #@! TO.C,U101*
X224500000Y-132782000D02*
X223250000Y-132782000D01*
X224500000Y-150682000D02*
X224500000Y-132782000D01*
X220000000Y-150682000D02*
X224500000Y-150682000D01*
X220000000Y-132782000D02*
X220000000Y-150682000D01*
X221250000Y-132782000D02*
X220000000Y-132782000D01*
X223250000Y-132782000D02*
G75*
G02X221250000Y-132782000I-1000000J0D01*
G01*
G04 #@! TO.C,D101*
X207990000Y-100140000D02*
X207990000Y-100296000D01*
X207990000Y-97824000D02*
X207990000Y-97980000D01*
X210591130Y-100139837D02*
G75*
G02X208509039Y-100140000I-1041130J1079837D01*
G01*
X210591130Y-97980163D02*
G75*
G03X208509039Y-97980000I-1041130J-1079837D01*
G01*
X211222335Y-100138608D02*
G75*
G02X207990000Y-100295516I-1672335J1078608D01*
G01*
X211222335Y-97981392D02*
G75*
G03X207990000Y-97824484I-1672335J-1078608D01*
G01*
G04 #@! TO.C,D103*
X195982335Y-123381392D02*
G75*
G03X192750000Y-123224484I-1672335J-1078608D01*
G01*
X195982335Y-125538608D02*
G75*
G02X192750000Y-125695516I-1672335J1078608D01*
G01*
X195351130Y-123380163D02*
G75*
G03X193269039Y-123380000I-1041130J-1079837D01*
G01*
X195351130Y-125539837D02*
G75*
G02X193269039Y-125540000I-1041130J1079837D01*
G01*
X192750000Y-123224000D02*
X192750000Y-123380000D01*
X192750000Y-125540000D02*
X192750000Y-125696000D01*
G04 #@! TO.C,D104*
X220690000Y-129350000D02*
X220690000Y-129506000D01*
X220690000Y-127034000D02*
X220690000Y-127190000D01*
X223291130Y-129349837D02*
G75*
G02X221209039Y-129350000I-1041130J1079837D01*
G01*
X223291130Y-127190163D02*
G75*
G03X221209039Y-127190000I-1041130J-1079837D01*
G01*
X223922335Y-129348608D02*
G75*
G02X220690000Y-129505516I-1672335J1078608D01*
G01*
X223922335Y-127191392D02*
G75*
G03X220690000Y-127034484I-1672335J-1078608D01*
G01*
G04 #@! TO.C,D105*
X251862335Y-123381392D02*
G75*
G03X248630000Y-123224484I-1672335J-1078608D01*
G01*
X251862335Y-125538608D02*
G75*
G02X248630000Y-125695516I-1672335J1078608D01*
G01*
X251231130Y-123380163D02*
G75*
G03X249149039Y-123380000I-1041130J-1079837D01*
G01*
X251231130Y-125539837D02*
G75*
G02X249149039Y-125540000I-1041130J1079837D01*
G01*
X248630000Y-123224000D02*
X248630000Y-123380000D01*
X248630000Y-125540000D02*
X248630000Y-125696000D01*
G04 #@! TO.C,D106*
X220690000Y-87694000D02*
X220690000Y-87850000D01*
X220690000Y-85378000D02*
X220690000Y-85534000D01*
X223291130Y-87693837D02*
G75*
G02X221209039Y-87694000I-1041130J1079837D01*
G01*
X223291130Y-85534163D02*
G75*
G03X221209039Y-85534000I-1041130J-1079837D01*
G01*
X223922335Y-87692608D02*
G75*
G02X220690000Y-87849516I-1672335J1078608D01*
G01*
X223922335Y-85535392D02*
G75*
G03X220690000Y-85378484I-1672335J-1078608D01*
G01*
G04 #@! TO.C,D107*
X188362335Y-137351392D02*
G75*
G03X185130000Y-137194484I-1672335J-1078608D01*
G01*
X188362335Y-139508608D02*
G75*
G02X185130000Y-139665516I-1672335J1078608D01*
G01*
X187731130Y-137350163D02*
G75*
G03X185649039Y-137350000I-1041130J-1079837D01*
G01*
X187731130Y-139509837D02*
G75*
G02X185649039Y-139510000I-1041130J1079837D01*
G01*
X185130000Y-137194000D02*
X185130000Y-137350000D01*
X185130000Y-139510000D02*
X185130000Y-139666000D01*
G04 #@! TO.C,D108*
X204180000Y-139510000D02*
X204180000Y-139666000D01*
X204180000Y-137194000D02*
X204180000Y-137350000D01*
X206781130Y-139509837D02*
G75*
G02X204699039Y-139510000I-1041130J1079837D01*
G01*
X206781130Y-137350163D02*
G75*
G03X204699039Y-137350000I-1041130J-1079837D01*
G01*
X207412335Y-139508608D02*
G75*
G02X204180000Y-139665516I-1672335J1078608D01*
G01*
X207412335Y-137351392D02*
G75*
G03X204180000Y-137194484I-1672335J-1078608D01*
G01*
G04 #@! TO.C,D109*
X240432335Y-137351392D02*
G75*
G03X237200000Y-137194484I-1672335J-1078608D01*
G01*
X240432335Y-139508608D02*
G75*
G02X237200000Y-139665516I-1672335J1078608D01*
G01*
X239801130Y-137350163D02*
G75*
G03X237719039Y-137350000I-1041130J-1079837D01*
G01*
X239801130Y-139509837D02*
G75*
G02X237719039Y-139510000I-1041130J1079837D01*
G01*
X237200000Y-137194000D02*
X237200000Y-137350000D01*
X237200000Y-139510000D02*
X237200000Y-139666000D01*
G04 #@! TO.C,D110*
X256250000Y-139510000D02*
X256250000Y-139666000D01*
X256250000Y-137194000D02*
X256250000Y-137350000D01*
X258851130Y-139509837D02*
G75*
G02X256769039Y-139510000I-1041130J1079837D01*
G01*
X258851130Y-137350163D02*
G75*
G03X256769039Y-137350000I-1041130J-1079837D01*
G01*
X259482335Y-139508608D02*
G75*
G02X256250000Y-139665516I-1672335J1078608D01*
G01*
X259482335Y-137351392D02*
G75*
G03X256250000Y-137194484I-1672335J-1078608D01*
G01*
G04 #@! TO.C,D102*
X233390000Y-100140000D02*
X233390000Y-100296000D01*
X233390000Y-97824000D02*
X233390000Y-97980000D01*
X235991130Y-100139837D02*
G75*
G02X233909039Y-100140000I-1041130J1079837D01*
G01*
X235991130Y-97980163D02*
G75*
G03X233909039Y-97980000I-1041130J-1079837D01*
G01*
X236622335Y-100138608D02*
G75*
G02X233390000Y-100295516I-1672335J1078608D01*
G01*
X236622335Y-97981392D02*
G75*
G03X233390000Y-97824484I-1672335J-1078608D01*
G01*
G04 #@! TO.C,R101*
X213008000Y-95676000D02*
X213008000Y-99396000D01*
X214728000Y-95676000D02*
X214728000Y-99396000D01*
G04 #@! TO.C,R102*
X229772000Y-99396000D02*
X229772000Y-95676000D01*
X231492000Y-99396000D02*
X231492000Y-95676000D01*
G04 #@! TO.C,R103*
X198800000Y-125320000D02*
X202520000Y-125320000D01*
X198800000Y-123600000D02*
X202520000Y-123600000D01*
G04 #@! TO.C,R104*
X220644000Y-123600000D02*
X224364000Y-123600000D01*
X220644000Y-125320000D02*
X224364000Y-125320000D01*
G04 #@! TO.C,R105*
X245700000Y-123600000D02*
X241980000Y-123600000D01*
X245700000Y-125320000D02*
X241980000Y-125320000D01*
G04 #@! TO.C,R106*
X224364000Y-90776000D02*
X220644000Y-90776000D01*
X224364000Y-89056000D02*
X220644000Y-89056000D01*
G04 #@! TO.C,R107*
X191180000Y-139036000D02*
X194900000Y-139036000D01*
X191180000Y-137316000D02*
X194900000Y-137316000D01*
G04 #@! TO.C,R108*
X203880000Y-133760000D02*
X207600000Y-133760000D01*
X203880000Y-135480000D02*
X207600000Y-135480000D01*
G04 #@! TO.C,R109*
X240620000Y-133760000D02*
X236900000Y-133760000D01*
X240620000Y-135480000D02*
X236900000Y-135480000D01*
G04 #@! TO.C,R110*
X253320000Y-139290000D02*
X249600000Y-139290000D01*
X253320000Y-137570000D02*
X249600000Y-137570000D01*
G04 #@! TO.C,U101*
D13*
X220535714Y-131234380D02*
X220535714Y-132043904D01*
X220583333Y-132139142D01*
X220630952Y-132186761D01*
X220726190Y-132234380D01*
X220916666Y-132234380D01*
X221011904Y-132186761D01*
X221059523Y-132139142D01*
X221107142Y-132043904D01*
X221107142Y-131234380D01*
X222107142Y-132234380D02*
X221535714Y-132234380D01*
X221821428Y-132234380D02*
X221821428Y-131234380D01*
X221726190Y-131377238D01*
X221630952Y-131472476D01*
X221535714Y-131520095D01*
X222726190Y-131234380D02*
X222821428Y-131234380D01*
X222916666Y-131282000D01*
X222964285Y-131329619D01*
X223011904Y-131424857D01*
X223059523Y-131615333D01*
X223059523Y-131853428D01*
X223011904Y-132043904D01*
X222964285Y-132139142D01*
X222916666Y-132186761D01*
X222821428Y-132234380D01*
X222726190Y-132234380D01*
X222630952Y-132186761D01*
X222583333Y-132139142D01*
X222535714Y-132043904D01*
X222488095Y-131853428D01*
X222488095Y-131615333D01*
X222535714Y-131424857D01*
X222583333Y-131329619D01*
X222630952Y-131282000D01*
X222726190Y-131234380D01*
X224011904Y-132234380D02*
X223440476Y-132234380D01*
X223726190Y-132234380D02*
X223726190Y-131234380D01*
X223630952Y-131377238D01*
X223535714Y-131472476D01*
X223440476Y-131520095D01*
G04 #@! TO.C,D101*
X209129523Y-97226380D02*
X209129523Y-96226380D01*
X209367619Y-96226380D01*
X209510476Y-96274000D01*
X209605714Y-96369238D01*
X209653333Y-96464476D01*
X209700952Y-96654952D01*
X209700952Y-96797809D01*
X209653333Y-96988285D01*
X209605714Y-97083523D01*
X209510476Y-97178761D01*
X209367619Y-97226380D01*
X209129523Y-97226380D01*
X210653333Y-97226380D02*
X210081904Y-97226380D01*
X210367619Y-97226380D02*
X210367619Y-96226380D01*
X210272380Y-96369238D01*
X210177142Y-96464476D01*
X210081904Y-96512095D01*
X211272380Y-96226380D02*
X211367619Y-96226380D01*
X211462857Y-96274000D01*
X211510476Y-96321619D01*
X211558095Y-96416857D01*
X211605714Y-96607333D01*
X211605714Y-96845428D01*
X211558095Y-97035904D01*
X211510476Y-97131142D01*
X211462857Y-97178761D01*
X211367619Y-97226380D01*
X211272380Y-97226380D01*
X211177142Y-97178761D01*
X211129523Y-97131142D01*
X211081904Y-97035904D01*
X211034285Y-96845428D01*
X211034285Y-96607333D01*
X211081904Y-96416857D01*
X211129523Y-96321619D01*
X211177142Y-96274000D01*
X211272380Y-96226380D01*
X212558095Y-97226380D02*
X211986666Y-97226380D01*
X212272380Y-97226380D02*
X212272380Y-96226380D01*
X212177142Y-96369238D01*
X212081904Y-96464476D01*
X211986666Y-96512095D01*
G04 #@! TO.C,D103*
X195159523Y-121864380D02*
X195159523Y-120864380D01*
X195397619Y-120864380D01*
X195540476Y-120912000D01*
X195635714Y-121007238D01*
X195683333Y-121102476D01*
X195730952Y-121292952D01*
X195730952Y-121435809D01*
X195683333Y-121626285D01*
X195635714Y-121721523D01*
X195540476Y-121816761D01*
X195397619Y-121864380D01*
X195159523Y-121864380D01*
X196683333Y-121864380D02*
X196111904Y-121864380D01*
X196397619Y-121864380D02*
X196397619Y-120864380D01*
X196302380Y-121007238D01*
X196207142Y-121102476D01*
X196111904Y-121150095D01*
X197302380Y-120864380D02*
X197397619Y-120864380D01*
X197492857Y-120912000D01*
X197540476Y-120959619D01*
X197588095Y-121054857D01*
X197635714Y-121245333D01*
X197635714Y-121483428D01*
X197588095Y-121673904D01*
X197540476Y-121769142D01*
X197492857Y-121816761D01*
X197397619Y-121864380D01*
X197302380Y-121864380D01*
X197207142Y-121816761D01*
X197159523Y-121769142D01*
X197111904Y-121673904D01*
X197064285Y-121483428D01*
X197064285Y-121245333D01*
X197111904Y-121054857D01*
X197159523Y-120959619D01*
X197207142Y-120912000D01*
X197302380Y-120864380D01*
X197969047Y-120864380D02*
X198588095Y-120864380D01*
X198254761Y-121245333D01*
X198397619Y-121245333D01*
X198492857Y-121292952D01*
X198540476Y-121340571D01*
X198588095Y-121435809D01*
X198588095Y-121673904D01*
X198540476Y-121769142D01*
X198492857Y-121816761D01*
X198397619Y-121864380D01*
X198111904Y-121864380D01*
X198016666Y-121816761D01*
X197969047Y-121769142D01*
G04 #@! TO.C,D104*
X216241523Y-128976380D02*
X216241523Y-127976380D01*
X216479619Y-127976380D01*
X216622476Y-128024000D01*
X216717714Y-128119238D01*
X216765333Y-128214476D01*
X216812952Y-128404952D01*
X216812952Y-128547809D01*
X216765333Y-128738285D01*
X216717714Y-128833523D01*
X216622476Y-128928761D01*
X216479619Y-128976380D01*
X216241523Y-128976380D01*
X217765333Y-128976380D02*
X217193904Y-128976380D01*
X217479619Y-128976380D02*
X217479619Y-127976380D01*
X217384380Y-128119238D01*
X217289142Y-128214476D01*
X217193904Y-128262095D01*
X218384380Y-127976380D02*
X218479619Y-127976380D01*
X218574857Y-128024000D01*
X218622476Y-128071619D01*
X218670095Y-128166857D01*
X218717714Y-128357333D01*
X218717714Y-128595428D01*
X218670095Y-128785904D01*
X218622476Y-128881142D01*
X218574857Y-128928761D01*
X218479619Y-128976380D01*
X218384380Y-128976380D01*
X218289142Y-128928761D01*
X218241523Y-128881142D01*
X218193904Y-128785904D01*
X218146285Y-128595428D01*
X218146285Y-128357333D01*
X218193904Y-128166857D01*
X218241523Y-128071619D01*
X218289142Y-128024000D01*
X218384380Y-127976380D01*
X219574857Y-128309714D02*
X219574857Y-128976380D01*
X219336761Y-127928761D02*
X219098666Y-128643047D01*
X219717714Y-128643047D01*
G04 #@! TO.C,D105*
X247229523Y-121952380D02*
X247229523Y-120952380D01*
X247467619Y-120952380D01*
X247610476Y-121000000D01*
X247705714Y-121095238D01*
X247753333Y-121190476D01*
X247800952Y-121380952D01*
X247800952Y-121523809D01*
X247753333Y-121714285D01*
X247705714Y-121809523D01*
X247610476Y-121904761D01*
X247467619Y-121952380D01*
X247229523Y-121952380D01*
X248753333Y-121952380D02*
X248181904Y-121952380D01*
X248467619Y-121952380D02*
X248467619Y-120952380D01*
X248372380Y-121095238D01*
X248277142Y-121190476D01*
X248181904Y-121238095D01*
X249372380Y-120952380D02*
X249467619Y-120952380D01*
X249562857Y-121000000D01*
X249610476Y-121047619D01*
X249658095Y-121142857D01*
X249705714Y-121333333D01*
X249705714Y-121571428D01*
X249658095Y-121761904D01*
X249610476Y-121857142D01*
X249562857Y-121904761D01*
X249467619Y-121952380D01*
X249372380Y-121952380D01*
X249277142Y-121904761D01*
X249229523Y-121857142D01*
X249181904Y-121761904D01*
X249134285Y-121571428D01*
X249134285Y-121333333D01*
X249181904Y-121142857D01*
X249229523Y-121047619D01*
X249277142Y-121000000D01*
X249372380Y-120952380D01*
X250610476Y-120952380D02*
X250134285Y-120952380D01*
X250086666Y-121428571D01*
X250134285Y-121380952D01*
X250229523Y-121333333D01*
X250467619Y-121333333D01*
X250562857Y-121380952D01*
X250610476Y-121428571D01*
X250658095Y-121523809D01*
X250658095Y-121761904D01*
X250610476Y-121857142D01*
X250562857Y-121904761D01*
X250467619Y-121952380D01*
X250229523Y-121952380D01*
X250134285Y-121904761D01*
X250086666Y-121857142D01*
G04 #@! TO.C,D106*
X224623523Y-88336380D02*
X224623523Y-87336380D01*
X224861619Y-87336380D01*
X225004476Y-87384000D01*
X225099714Y-87479238D01*
X225147333Y-87574476D01*
X225194952Y-87764952D01*
X225194952Y-87907809D01*
X225147333Y-88098285D01*
X225099714Y-88193523D01*
X225004476Y-88288761D01*
X224861619Y-88336380D01*
X224623523Y-88336380D01*
X226147333Y-88336380D02*
X225575904Y-88336380D01*
X225861619Y-88336380D02*
X225861619Y-87336380D01*
X225766380Y-87479238D01*
X225671142Y-87574476D01*
X225575904Y-87622095D01*
X226766380Y-87336380D02*
X226861619Y-87336380D01*
X226956857Y-87384000D01*
X227004476Y-87431619D01*
X227052095Y-87526857D01*
X227099714Y-87717333D01*
X227099714Y-87955428D01*
X227052095Y-88145904D01*
X227004476Y-88241142D01*
X226956857Y-88288761D01*
X226861619Y-88336380D01*
X226766380Y-88336380D01*
X226671142Y-88288761D01*
X226623523Y-88241142D01*
X226575904Y-88145904D01*
X226528285Y-87955428D01*
X226528285Y-87717333D01*
X226575904Y-87526857D01*
X226623523Y-87431619D01*
X226671142Y-87384000D01*
X226766380Y-87336380D01*
X227956857Y-87336380D02*
X227766380Y-87336380D01*
X227671142Y-87384000D01*
X227623523Y-87431619D01*
X227528285Y-87574476D01*
X227480666Y-87764952D01*
X227480666Y-88145904D01*
X227528285Y-88241142D01*
X227575904Y-88288761D01*
X227671142Y-88336380D01*
X227861619Y-88336380D01*
X227956857Y-88288761D01*
X228004476Y-88241142D01*
X228052095Y-88145904D01*
X228052095Y-87907809D01*
X228004476Y-87812571D01*
X227956857Y-87764952D01*
X227861619Y-87717333D01*
X227671142Y-87717333D01*
X227575904Y-87764952D01*
X227528285Y-87812571D01*
X227480666Y-87907809D01*
G04 #@! TO.C,D107*
X184999523Y-135922380D02*
X184999523Y-134922380D01*
X185237619Y-134922380D01*
X185380476Y-134970000D01*
X185475714Y-135065238D01*
X185523333Y-135160476D01*
X185570952Y-135350952D01*
X185570952Y-135493809D01*
X185523333Y-135684285D01*
X185475714Y-135779523D01*
X185380476Y-135874761D01*
X185237619Y-135922380D01*
X184999523Y-135922380D01*
X186523333Y-135922380D02*
X185951904Y-135922380D01*
X186237619Y-135922380D02*
X186237619Y-134922380D01*
X186142380Y-135065238D01*
X186047142Y-135160476D01*
X185951904Y-135208095D01*
X187142380Y-134922380D02*
X187237619Y-134922380D01*
X187332857Y-134970000D01*
X187380476Y-135017619D01*
X187428095Y-135112857D01*
X187475714Y-135303333D01*
X187475714Y-135541428D01*
X187428095Y-135731904D01*
X187380476Y-135827142D01*
X187332857Y-135874761D01*
X187237619Y-135922380D01*
X187142380Y-135922380D01*
X187047142Y-135874761D01*
X186999523Y-135827142D01*
X186951904Y-135731904D01*
X186904285Y-135541428D01*
X186904285Y-135303333D01*
X186951904Y-135112857D01*
X186999523Y-135017619D01*
X187047142Y-134970000D01*
X187142380Y-134922380D01*
X187809047Y-134922380D02*
X188475714Y-134922380D01*
X188047142Y-135922380D01*
G04 #@! TO.C,D108*
X198969523Y-138882380D02*
X198969523Y-137882380D01*
X199207619Y-137882380D01*
X199350476Y-137930000D01*
X199445714Y-138025238D01*
X199493333Y-138120476D01*
X199540952Y-138310952D01*
X199540952Y-138453809D01*
X199493333Y-138644285D01*
X199445714Y-138739523D01*
X199350476Y-138834761D01*
X199207619Y-138882380D01*
X198969523Y-138882380D01*
X200493333Y-138882380D02*
X199921904Y-138882380D01*
X200207619Y-138882380D02*
X200207619Y-137882380D01*
X200112380Y-138025238D01*
X200017142Y-138120476D01*
X199921904Y-138168095D01*
X201112380Y-137882380D02*
X201207619Y-137882380D01*
X201302857Y-137930000D01*
X201350476Y-137977619D01*
X201398095Y-138072857D01*
X201445714Y-138263333D01*
X201445714Y-138501428D01*
X201398095Y-138691904D01*
X201350476Y-138787142D01*
X201302857Y-138834761D01*
X201207619Y-138882380D01*
X201112380Y-138882380D01*
X201017142Y-138834761D01*
X200969523Y-138787142D01*
X200921904Y-138691904D01*
X200874285Y-138501428D01*
X200874285Y-138263333D01*
X200921904Y-138072857D01*
X200969523Y-137977619D01*
X201017142Y-137930000D01*
X201112380Y-137882380D01*
X202017142Y-138310952D02*
X201921904Y-138263333D01*
X201874285Y-138215714D01*
X201826666Y-138120476D01*
X201826666Y-138072857D01*
X201874285Y-137977619D01*
X201921904Y-137930000D01*
X202017142Y-137882380D01*
X202207619Y-137882380D01*
X202302857Y-137930000D01*
X202350476Y-137977619D01*
X202398095Y-138072857D01*
X202398095Y-138120476D01*
X202350476Y-138215714D01*
X202302857Y-138263333D01*
X202207619Y-138310952D01*
X202017142Y-138310952D01*
X201921904Y-138358571D01*
X201874285Y-138406190D01*
X201826666Y-138501428D01*
X201826666Y-138691904D01*
X201874285Y-138787142D01*
X201921904Y-138834761D01*
X202017142Y-138882380D01*
X202207619Y-138882380D01*
X202302857Y-138834761D01*
X202350476Y-138787142D01*
X202398095Y-138691904D01*
X202398095Y-138501428D01*
X202350476Y-138406190D01*
X202302857Y-138358571D01*
X202207619Y-138310952D01*
G04 #@! TO.C,D109*
X231989523Y-138882380D02*
X231989523Y-137882380D01*
X232227619Y-137882380D01*
X232370476Y-137930000D01*
X232465714Y-138025238D01*
X232513333Y-138120476D01*
X232560952Y-138310952D01*
X232560952Y-138453809D01*
X232513333Y-138644285D01*
X232465714Y-138739523D01*
X232370476Y-138834761D01*
X232227619Y-138882380D01*
X231989523Y-138882380D01*
X233513333Y-138882380D02*
X232941904Y-138882380D01*
X233227619Y-138882380D02*
X233227619Y-137882380D01*
X233132380Y-138025238D01*
X233037142Y-138120476D01*
X232941904Y-138168095D01*
X234132380Y-137882380D02*
X234227619Y-137882380D01*
X234322857Y-137930000D01*
X234370476Y-137977619D01*
X234418095Y-138072857D01*
X234465714Y-138263333D01*
X234465714Y-138501428D01*
X234418095Y-138691904D01*
X234370476Y-138787142D01*
X234322857Y-138834761D01*
X234227619Y-138882380D01*
X234132380Y-138882380D01*
X234037142Y-138834761D01*
X233989523Y-138787142D01*
X233941904Y-138691904D01*
X233894285Y-138501428D01*
X233894285Y-138263333D01*
X233941904Y-138072857D01*
X233989523Y-137977619D01*
X234037142Y-137930000D01*
X234132380Y-137882380D01*
X234941904Y-138882380D02*
X235132380Y-138882380D01*
X235227619Y-138834761D01*
X235275238Y-138787142D01*
X235370476Y-138644285D01*
X235418095Y-138453809D01*
X235418095Y-138072857D01*
X235370476Y-137977619D01*
X235322857Y-137930000D01*
X235227619Y-137882380D01*
X235037142Y-137882380D01*
X234941904Y-137930000D01*
X234894285Y-137977619D01*
X234846666Y-138072857D01*
X234846666Y-138310952D01*
X234894285Y-138406190D01*
X234941904Y-138453809D01*
X235037142Y-138501428D01*
X235227619Y-138501428D01*
X235322857Y-138453809D01*
X235370476Y-138406190D01*
X235418095Y-138310952D01*
G04 #@! TO.C,D110*
X253579523Y-136088380D02*
X253579523Y-135088380D01*
X253817619Y-135088380D01*
X253960476Y-135136000D01*
X254055714Y-135231238D01*
X254103333Y-135326476D01*
X254150952Y-135516952D01*
X254150952Y-135659809D01*
X254103333Y-135850285D01*
X254055714Y-135945523D01*
X253960476Y-136040761D01*
X253817619Y-136088380D01*
X253579523Y-136088380D01*
X255103333Y-136088380D02*
X254531904Y-136088380D01*
X254817619Y-136088380D02*
X254817619Y-135088380D01*
X254722380Y-135231238D01*
X254627142Y-135326476D01*
X254531904Y-135374095D01*
X256055714Y-136088380D02*
X255484285Y-136088380D01*
X255770000Y-136088380D02*
X255770000Y-135088380D01*
X255674761Y-135231238D01*
X255579523Y-135326476D01*
X255484285Y-135374095D01*
X256674761Y-135088380D02*
X256770000Y-135088380D01*
X256865238Y-135136000D01*
X256912857Y-135183619D01*
X256960476Y-135278857D01*
X257008095Y-135469333D01*
X257008095Y-135707428D01*
X256960476Y-135897904D01*
X256912857Y-135993142D01*
X256865238Y-136040761D01*
X256770000Y-136088380D01*
X256674761Y-136088380D01*
X256579523Y-136040761D01*
X256531904Y-135993142D01*
X256484285Y-135897904D01*
X256436666Y-135707428D01*
X256436666Y-135469333D01*
X256484285Y-135278857D01*
X256531904Y-135183619D01*
X256579523Y-135136000D01*
X256674761Y-135088380D01*
G04 #@! TO.C,D102*
X231735523Y-96552380D02*
X231735523Y-95552380D01*
X231973619Y-95552380D01*
X232116476Y-95600000D01*
X232211714Y-95695238D01*
X232259333Y-95790476D01*
X232306952Y-95980952D01*
X232306952Y-96123809D01*
X232259333Y-96314285D01*
X232211714Y-96409523D01*
X232116476Y-96504761D01*
X231973619Y-96552380D01*
X231735523Y-96552380D01*
X233259333Y-96552380D02*
X232687904Y-96552380D01*
X232973619Y-96552380D02*
X232973619Y-95552380D01*
X232878380Y-95695238D01*
X232783142Y-95790476D01*
X232687904Y-95838095D01*
X233878380Y-95552380D02*
X233973619Y-95552380D01*
X234068857Y-95600000D01*
X234116476Y-95647619D01*
X234164095Y-95742857D01*
X234211714Y-95933333D01*
X234211714Y-96171428D01*
X234164095Y-96361904D01*
X234116476Y-96457142D01*
X234068857Y-96504761D01*
X233973619Y-96552380D01*
X233878380Y-96552380D01*
X233783142Y-96504761D01*
X233735523Y-96457142D01*
X233687904Y-96361904D01*
X233640285Y-96171428D01*
X233640285Y-95933333D01*
X233687904Y-95742857D01*
X233735523Y-95647619D01*
X233783142Y-95600000D01*
X233878380Y-95552380D01*
X234592666Y-95647619D02*
X234640285Y-95600000D01*
X234735523Y-95552380D01*
X234973619Y-95552380D01*
X235068857Y-95600000D01*
X235116476Y-95647619D01*
X235164095Y-95742857D01*
X235164095Y-95838095D01*
X235116476Y-95980952D01*
X234545047Y-96552380D01*
X235164095Y-96552380D01*
G04 #@! TO.C,R101*
X216180380Y-98655047D02*
X215704190Y-98988380D01*
X216180380Y-99226476D02*
X215180380Y-99226476D01*
X215180380Y-98845523D01*
X215228000Y-98750285D01*
X215275619Y-98702666D01*
X215370857Y-98655047D01*
X215513714Y-98655047D01*
X215608952Y-98702666D01*
X215656571Y-98750285D01*
X215704190Y-98845523D01*
X215704190Y-99226476D01*
X216180380Y-97702666D02*
X216180380Y-98274095D01*
X216180380Y-97988380D02*
X215180380Y-97988380D01*
X215323238Y-98083619D01*
X215418476Y-98178857D01*
X215466095Y-98274095D01*
X215180380Y-97083619D02*
X215180380Y-96988380D01*
X215228000Y-96893142D01*
X215275619Y-96845523D01*
X215370857Y-96797904D01*
X215561333Y-96750285D01*
X215799428Y-96750285D01*
X215989904Y-96797904D01*
X216085142Y-96845523D01*
X216132761Y-96893142D01*
X216180380Y-96988380D01*
X216180380Y-97083619D01*
X216132761Y-97178857D01*
X216085142Y-97226476D01*
X215989904Y-97274095D01*
X215799428Y-97321714D01*
X215561333Y-97321714D01*
X215370857Y-97274095D01*
X215275619Y-97226476D01*
X215228000Y-97178857D01*
X215180380Y-97083619D01*
X216180380Y-95797904D02*
X216180380Y-96369333D01*
X216180380Y-96083619D02*
X215180380Y-96083619D01*
X215323238Y-96178857D01*
X215418476Y-96274095D01*
X215466095Y-96369333D01*
G04 #@! TO.C,R102*
X229224380Y-98655047D02*
X228748190Y-98988380D01*
X229224380Y-99226476D02*
X228224380Y-99226476D01*
X228224380Y-98845523D01*
X228272000Y-98750285D01*
X228319619Y-98702666D01*
X228414857Y-98655047D01*
X228557714Y-98655047D01*
X228652952Y-98702666D01*
X228700571Y-98750285D01*
X228748190Y-98845523D01*
X228748190Y-99226476D01*
X229224380Y-97702666D02*
X229224380Y-98274095D01*
X229224380Y-97988380D02*
X228224380Y-97988380D01*
X228367238Y-98083619D01*
X228462476Y-98178857D01*
X228510095Y-98274095D01*
X228224380Y-97083619D02*
X228224380Y-96988380D01*
X228272000Y-96893142D01*
X228319619Y-96845523D01*
X228414857Y-96797904D01*
X228605333Y-96750285D01*
X228843428Y-96750285D01*
X229033904Y-96797904D01*
X229129142Y-96845523D01*
X229176761Y-96893142D01*
X229224380Y-96988380D01*
X229224380Y-97083619D01*
X229176761Y-97178857D01*
X229129142Y-97226476D01*
X229033904Y-97274095D01*
X228843428Y-97321714D01*
X228605333Y-97321714D01*
X228414857Y-97274095D01*
X228319619Y-97226476D01*
X228272000Y-97178857D01*
X228224380Y-97083619D01*
X228319619Y-96369333D02*
X228272000Y-96321714D01*
X228224380Y-96226476D01*
X228224380Y-95988380D01*
X228272000Y-95893142D01*
X228319619Y-95845523D01*
X228414857Y-95797904D01*
X228510095Y-95797904D01*
X228652952Y-95845523D01*
X229224380Y-96416952D01*
X229224380Y-95797904D01*
G04 #@! TO.C,R103*
X199540952Y-123052380D02*
X199207619Y-122576190D01*
X198969523Y-123052380D02*
X198969523Y-122052380D01*
X199350476Y-122052380D01*
X199445714Y-122100000D01*
X199493333Y-122147619D01*
X199540952Y-122242857D01*
X199540952Y-122385714D01*
X199493333Y-122480952D01*
X199445714Y-122528571D01*
X199350476Y-122576190D01*
X198969523Y-122576190D01*
X200493333Y-123052380D02*
X199921904Y-123052380D01*
X200207619Y-123052380D02*
X200207619Y-122052380D01*
X200112380Y-122195238D01*
X200017142Y-122290476D01*
X199921904Y-122338095D01*
X201112380Y-122052380D02*
X201207619Y-122052380D01*
X201302857Y-122100000D01*
X201350476Y-122147619D01*
X201398095Y-122242857D01*
X201445714Y-122433333D01*
X201445714Y-122671428D01*
X201398095Y-122861904D01*
X201350476Y-122957142D01*
X201302857Y-123004761D01*
X201207619Y-123052380D01*
X201112380Y-123052380D01*
X201017142Y-123004761D01*
X200969523Y-122957142D01*
X200921904Y-122861904D01*
X200874285Y-122671428D01*
X200874285Y-122433333D01*
X200921904Y-122242857D01*
X200969523Y-122147619D01*
X201017142Y-122100000D01*
X201112380Y-122052380D01*
X201779047Y-122052380D02*
X202398095Y-122052380D01*
X202064761Y-122433333D01*
X202207619Y-122433333D01*
X202302857Y-122480952D01*
X202350476Y-122528571D01*
X202398095Y-122623809D01*
X202398095Y-122861904D01*
X202350476Y-122957142D01*
X202302857Y-123004761D01*
X202207619Y-123052380D01*
X201921904Y-123052380D01*
X201826666Y-123004761D01*
X201779047Y-122957142D01*
G04 #@! TO.C,R104*
X221384952Y-123052380D02*
X221051619Y-122576190D01*
X220813523Y-123052380D02*
X220813523Y-122052380D01*
X221194476Y-122052380D01*
X221289714Y-122100000D01*
X221337333Y-122147619D01*
X221384952Y-122242857D01*
X221384952Y-122385714D01*
X221337333Y-122480952D01*
X221289714Y-122528571D01*
X221194476Y-122576190D01*
X220813523Y-122576190D01*
X222337333Y-123052380D02*
X221765904Y-123052380D01*
X222051619Y-123052380D02*
X222051619Y-122052380D01*
X221956380Y-122195238D01*
X221861142Y-122290476D01*
X221765904Y-122338095D01*
X222956380Y-122052380D02*
X223051619Y-122052380D01*
X223146857Y-122100000D01*
X223194476Y-122147619D01*
X223242095Y-122242857D01*
X223289714Y-122433333D01*
X223289714Y-122671428D01*
X223242095Y-122861904D01*
X223194476Y-122957142D01*
X223146857Y-123004761D01*
X223051619Y-123052380D01*
X222956380Y-123052380D01*
X222861142Y-123004761D01*
X222813523Y-122957142D01*
X222765904Y-122861904D01*
X222718285Y-122671428D01*
X222718285Y-122433333D01*
X222765904Y-122242857D01*
X222813523Y-122147619D01*
X222861142Y-122100000D01*
X222956380Y-122052380D01*
X224146857Y-122385714D02*
X224146857Y-123052380D01*
X223908761Y-122004761D02*
X223670666Y-122719047D01*
X224289714Y-122719047D01*
G04 #@! TO.C,R105*
X242720952Y-122372380D02*
X242387619Y-121896190D01*
X242149523Y-122372380D02*
X242149523Y-121372380D01*
X242530476Y-121372380D01*
X242625714Y-121420000D01*
X242673333Y-121467619D01*
X242720952Y-121562857D01*
X242720952Y-121705714D01*
X242673333Y-121800952D01*
X242625714Y-121848571D01*
X242530476Y-121896190D01*
X242149523Y-121896190D01*
X243673333Y-122372380D02*
X243101904Y-122372380D01*
X243387619Y-122372380D02*
X243387619Y-121372380D01*
X243292380Y-121515238D01*
X243197142Y-121610476D01*
X243101904Y-121658095D01*
X244292380Y-121372380D02*
X244387619Y-121372380D01*
X244482857Y-121420000D01*
X244530476Y-121467619D01*
X244578095Y-121562857D01*
X244625714Y-121753333D01*
X244625714Y-121991428D01*
X244578095Y-122181904D01*
X244530476Y-122277142D01*
X244482857Y-122324761D01*
X244387619Y-122372380D01*
X244292380Y-122372380D01*
X244197142Y-122324761D01*
X244149523Y-122277142D01*
X244101904Y-122181904D01*
X244054285Y-121991428D01*
X244054285Y-121753333D01*
X244101904Y-121562857D01*
X244149523Y-121467619D01*
X244197142Y-121420000D01*
X244292380Y-121372380D01*
X245530476Y-121372380D02*
X245054285Y-121372380D01*
X245006666Y-121848571D01*
X245054285Y-121800952D01*
X245149523Y-121753333D01*
X245387619Y-121753333D01*
X245482857Y-121800952D01*
X245530476Y-121848571D01*
X245578095Y-121943809D01*
X245578095Y-122181904D01*
X245530476Y-122277142D01*
X245482857Y-122324761D01*
X245387619Y-122372380D01*
X245149523Y-122372380D01*
X245054285Y-122324761D01*
X245006666Y-122277142D01*
G04 #@! TO.C,R106*
X221384952Y-92228380D02*
X221051619Y-91752190D01*
X220813523Y-92228380D02*
X220813523Y-91228380D01*
X221194476Y-91228380D01*
X221289714Y-91276000D01*
X221337333Y-91323619D01*
X221384952Y-91418857D01*
X221384952Y-91561714D01*
X221337333Y-91656952D01*
X221289714Y-91704571D01*
X221194476Y-91752190D01*
X220813523Y-91752190D01*
X222337333Y-92228380D02*
X221765904Y-92228380D01*
X222051619Y-92228380D02*
X222051619Y-91228380D01*
X221956380Y-91371238D01*
X221861142Y-91466476D01*
X221765904Y-91514095D01*
X222956380Y-91228380D02*
X223051619Y-91228380D01*
X223146857Y-91276000D01*
X223194476Y-91323619D01*
X223242095Y-91418857D01*
X223289714Y-91609333D01*
X223289714Y-91847428D01*
X223242095Y-92037904D01*
X223194476Y-92133142D01*
X223146857Y-92180761D01*
X223051619Y-92228380D01*
X222956380Y-92228380D01*
X222861142Y-92180761D01*
X222813523Y-92133142D01*
X222765904Y-92037904D01*
X222718285Y-91847428D01*
X222718285Y-91609333D01*
X222765904Y-91418857D01*
X222813523Y-91323619D01*
X222861142Y-91276000D01*
X222956380Y-91228380D01*
X224146857Y-91228380D02*
X223956380Y-91228380D01*
X223861142Y-91276000D01*
X223813523Y-91323619D01*
X223718285Y-91466476D01*
X223670666Y-91656952D01*
X223670666Y-92037904D01*
X223718285Y-92133142D01*
X223765904Y-92180761D01*
X223861142Y-92228380D01*
X224051619Y-92228380D01*
X224146857Y-92180761D01*
X224194476Y-92133142D01*
X224242095Y-92037904D01*
X224242095Y-91799809D01*
X224194476Y-91704571D01*
X224146857Y-91656952D01*
X224051619Y-91609333D01*
X223861142Y-91609333D01*
X223765904Y-91656952D01*
X223718285Y-91704571D01*
X223670666Y-91799809D01*
G04 #@! TO.C,R107*
X191920952Y-136768380D02*
X191587619Y-136292190D01*
X191349523Y-136768380D02*
X191349523Y-135768380D01*
X191730476Y-135768380D01*
X191825714Y-135816000D01*
X191873333Y-135863619D01*
X191920952Y-135958857D01*
X191920952Y-136101714D01*
X191873333Y-136196952D01*
X191825714Y-136244571D01*
X191730476Y-136292190D01*
X191349523Y-136292190D01*
X192873333Y-136768380D02*
X192301904Y-136768380D01*
X192587619Y-136768380D02*
X192587619Y-135768380D01*
X192492380Y-135911238D01*
X192397142Y-136006476D01*
X192301904Y-136054095D01*
X193492380Y-135768380D02*
X193587619Y-135768380D01*
X193682857Y-135816000D01*
X193730476Y-135863619D01*
X193778095Y-135958857D01*
X193825714Y-136149333D01*
X193825714Y-136387428D01*
X193778095Y-136577904D01*
X193730476Y-136673142D01*
X193682857Y-136720761D01*
X193587619Y-136768380D01*
X193492380Y-136768380D01*
X193397142Y-136720761D01*
X193349523Y-136673142D01*
X193301904Y-136577904D01*
X193254285Y-136387428D01*
X193254285Y-136149333D01*
X193301904Y-135958857D01*
X193349523Y-135863619D01*
X193397142Y-135816000D01*
X193492380Y-135768380D01*
X194159047Y-135768380D02*
X194825714Y-135768380D01*
X194397142Y-136768380D01*
G04 #@! TO.C,R108*
X205128952Y-133040380D02*
X204795619Y-132564190D01*
X204557523Y-133040380D02*
X204557523Y-132040380D01*
X204938476Y-132040380D01*
X205033714Y-132088000D01*
X205081333Y-132135619D01*
X205128952Y-132230857D01*
X205128952Y-132373714D01*
X205081333Y-132468952D01*
X205033714Y-132516571D01*
X204938476Y-132564190D01*
X204557523Y-132564190D01*
X206081333Y-133040380D02*
X205509904Y-133040380D01*
X205795619Y-133040380D02*
X205795619Y-132040380D01*
X205700380Y-132183238D01*
X205605142Y-132278476D01*
X205509904Y-132326095D01*
X206700380Y-132040380D02*
X206795619Y-132040380D01*
X206890857Y-132088000D01*
X206938476Y-132135619D01*
X206986095Y-132230857D01*
X207033714Y-132421333D01*
X207033714Y-132659428D01*
X206986095Y-132849904D01*
X206938476Y-132945142D01*
X206890857Y-132992761D01*
X206795619Y-133040380D01*
X206700380Y-133040380D01*
X206605142Y-132992761D01*
X206557523Y-132945142D01*
X206509904Y-132849904D01*
X206462285Y-132659428D01*
X206462285Y-132421333D01*
X206509904Y-132230857D01*
X206557523Y-132135619D01*
X206605142Y-132088000D01*
X206700380Y-132040380D01*
X207605142Y-132468952D02*
X207509904Y-132421333D01*
X207462285Y-132373714D01*
X207414666Y-132278476D01*
X207414666Y-132230857D01*
X207462285Y-132135619D01*
X207509904Y-132088000D01*
X207605142Y-132040380D01*
X207795619Y-132040380D01*
X207890857Y-132088000D01*
X207938476Y-132135619D01*
X207986095Y-132230857D01*
X207986095Y-132278476D01*
X207938476Y-132373714D01*
X207890857Y-132421333D01*
X207795619Y-132468952D01*
X207605142Y-132468952D01*
X207509904Y-132516571D01*
X207462285Y-132564190D01*
X207414666Y-132659428D01*
X207414666Y-132849904D01*
X207462285Y-132945142D01*
X207509904Y-132992761D01*
X207605142Y-133040380D01*
X207795619Y-133040380D01*
X207890857Y-132992761D01*
X207938476Y-132945142D01*
X207986095Y-132849904D01*
X207986095Y-132659428D01*
X207938476Y-132564190D01*
X207890857Y-132516571D01*
X207795619Y-132468952D01*
G04 #@! TO.C,R109*
X236370952Y-133040380D02*
X236037619Y-132564190D01*
X235799523Y-133040380D02*
X235799523Y-132040380D01*
X236180476Y-132040380D01*
X236275714Y-132088000D01*
X236323333Y-132135619D01*
X236370952Y-132230857D01*
X236370952Y-132373714D01*
X236323333Y-132468952D01*
X236275714Y-132516571D01*
X236180476Y-132564190D01*
X235799523Y-132564190D01*
X237323333Y-133040380D02*
X236751904Y-133040380D01*
X237037619Y-133040380D02*
X237037619Y-132040380D01*
X236942380Y-132183238D01*
X236847142Y-132278476D01*
X236751904Y-132326095D01*
X237942380Y-132040380D02*
X238037619Y-132040380D01*
X238132857Y-132088000D01*
X238180476Y-132135619D01*
X238228095Y-132230857D01*
X238275714Y-132421333D01*
X238275714Y-132659428D01*
X238228095Y-132849904D01*
X238180476Y-132945142D01*
X238132857Y-132992761D01*
X238037619Y-133040380D01*
X237942380Y-133040380D01*
X237847142Y-132992761D01*
X237799523Y-132945142D01*
X237751904Y-132849904D01*
X237704285Y-132659428D01*
X237704285Y-132421333D01*
X237751904Y-132230857D01*
X237799523Y-132135619D01*
X237847142Y-132088000D01*
X237942380Y-132040380D01*
X238751904Y-133040380D02*
X238942380Y-133040380D01*
X239037619Y-132992761D01*
X239085238Y-132945142D01*
X239180476Y-132802285D01*
X239228095Y-132611809D01*
X239228095Y-132230857D01*
X239180476Y-132135619D01*
X239132857Y-132088000D01*
X239037619Y-132040380D01*
X238847142Y-132040380D01*
X238751904Y-132088000D01*
X238704285Y-132135619D01*
X238656666Y-132230857D01*
X238656666Y-132468952D01*
X238704285Y-132564190D01*
X238751904Y-132611809D01*
X238847142Y-132659428D01*
X239037619Y-132659428D01*
X239132857Y-132611809D01*
X239180476Y-132564190D01*
X239228095Y-132468952D01*
G04 #@! TO.C,R110*
X249324952Y-136850380D02*
X248991619Y-136374190D01*
X248753523Y-136850380D02*
X248753523Y-135850380D01*
X249134476Y-135850380D01*
X249229714Y-135898000D01*
X249277333Y-135945619D01*
X249324952Y-136040857D01*
X249324952Y-136183714D01*
X249277333Y-136278952D01*
X249229714Y-136326571D01*
X249134476Y-136374190D01*
X248753523Y-136374190D01*
X250277333Y-136850380D02*
X249705904Y-136850380D01*
X249991619Y-136850380D02*
X249991619Y-135850380D01*
X249896380Y-135993238D01*
X249801142Y-136088476D01*
X249705904Y-136136095D01*
X251229714Y-136850380D02*
X250658285Y-136850380D01*
X250944000Y-136850380D02*
X250944000Y-135850380D01*
X250848761Y-135993238D01*
X250753523Y-136088476D01*
X250658285Y-136136095D01*
X251848761Y-135850380D02*
X251944000Y-135850380D01*
X252039238Y-135898000D01*
X252086857Y-135945619D01*
X252134476Y-136040857D01*
X252182095Y-136231333D01*
X252182095Y-136469428D01*
X252134476Y-136659904D01*
X252086857Y-136755142D01*
X252039238Y-136802761D01*
X251944000Y-136850380D01*
X251848761Y-136850380D01*
X251753523Y-136802761D01*
X251705904Y-136755142D01*
X251658285Y-136659904D01*
X251610666Y-136469428D01*
X251610666Y-136231333D01*
X251658285Y-136040857D01*
X251705904Y-135945619D01*
X251753523Y-135898000D01*
X251848761Y-135850380D01*
G04 #@! TD*
M02*
