G04 #@! TF.GenerationSoftware,KiCad,Pcbnew,(5.0.0)*
G04 #@! TF.CreationDate,2018-12-05T15:31:39-05:00*
G04 #@! TF.ProjectId,Christmas Ornament,4368726973746D6173204F726E616D65,rev?*
G04 #@! TF.SameCoordinates,Original*
G04 #@! TF.FileFunction,Copper,L1,Top,Signal*
G04 #@! TF.FilePolarity,Positive*
%FSLAX46Y46*%
G04 Gerber Fmt 4.6, Leading zero omitted, Abs format (unit mm)*
G04 Created by KiCad (PCBNEW (5.0.0)) date 12/05/18 15:31:39*
%MOMM*%
%LPD*%
G01*
G04 APERTURE LIST*
G04 #@! TA.AperFunction,NonConductor*
%ADD10C,0.127000*%
G04 #@! TD*
G04 #@! TA.AperFunction,ComponentPad*
%ADD11C,2.540000*%
G04 #@! TD*
G04 #@! TA.AperFunction,ComponentPad*
%ADD12O,2.400000X1.600000*%
G04 #@! TD*
G04 #@! TA.AperFunction,ComponentPad*
%ADD13R,2.400000X1.600000*%
G04 #@! TD*
G04 #@! TA.AperFunction,ComponentPad*
%ADD14C,1.800000*%
G04 #@! TD*
G04 #@! TA.AperFunction,ComponentPad*
%ADD15R,1.800000X1.800000*%
G04 #@! TD*
G04 #@! TA.AperFunction,ComponentPad*
%ADD16O,1.400000X1.400000*%
G04 #@! TD*
G04 #@! TA.AperFunction,ComponentPad*
%ADD17C,1.400000*%
G04 #@! TD*
G04 #@! TA.AperFunction,ViaPad*
%ADD18C,0.800000*%
G04 #@! TD*
G04 #@! TA.AperFunction,Conductor*
%ADD19C,0.250000*%
G04 #@! TD*
G04 APERTURE END LIST*
D10*
X233571142Y-114699142D02*
X233534857Y-114735428D01*
X233426000Y-114771714D01*
X233353428Y-114771714D01*
X233244571Y-114735428D01*
X233172000Y-114662857D01*
X233135714Y-114590285D01*
X233099428Y-114445142D01*
X233099428Y-114336285D01*
X233135714Y-114191142D01*
X233172000Y-114118571D01*
X233244571Y-114046000D01*
X233353428Y-114009714D01*
X233426000Y-114009714D01*
X233534857Y-114046000D01*
X233571142Y-114082285D01*
X234333142Y-114771714D02*
X234079142Y-114408857D01*
X233897714Y-114771714D02*
X233897714Y-114009714D01*
X234188000Y-114009714D01*
X234260571Y-114046000D01*
X234296857Y-114082285D01*
X234333142Y-114154857D01*
X234333142Y-114263714D01*
X234296857Y-114336285D01*
X234260571Y-114372571D01*
X234188000Y-114408857D01*
X233897714Y-114408857D01*
X234623428Y-114082285D02*
X234659714Y-114046000D01*
X234732285Y-114009714D01*
X234913714Y-114009714D01*
X234986285Y-114046000D01*
X235022571Y-114082285D01*
X235058857Y-114154857D01*
X235058857Y-114227428D01*
X235022571Y-114336285D01*
X234587142Y-114771714D01*
X235058857Y-114771714D01*
X235530571Y-114009714D02*
X235603142Y-114009714D01*
X235675714Y-114046000D01*
X235712000Y-114082285D01*
X235748285Y-114154857D01*
X235784571Y-114300000D01*
X235784571Y-114481428D01*
X235748285Y-114626571D01*
X235712000Y-114699142D01*
X235675714Y-114735428D01*
X235603142Y-114771714D01*
X235530571Y-114771714D01*
X235458000Y-114735428D01*
X235421714Y-114699142D01*
X235385428Y-114626571D01*
X235349142Y-114481428D01*
X235349142Y-114300000D01*
X235385428Y-114154857D01*
X235421714Y-114082285D01*
X235458000Y-114046000D01*
X235530571Y-114009714D01*
X236038571Y-114009714D02*
X236510285Y-114009714D01*
X236256285Y-114300000D01*
X236365142Y-114300000D01*
X236437714Y-114336285D01*
X236474000Y-114372571D01*
X236510285Y-114445142D01*
X236510285Y-114626571D01*
X236474000Y-114699142D01*
X236437714Y-114735428D01*
X236365142Y-114771714D01*
X236147428Y-114771714D01*
X236074857Y-114735428D01*
X236038571Y-114699142D01*
X236800571Y-114082285D02*
X236836857Y-114046000D01*
X236909428Y-114009714D01*
X237090857Y-114009714D01*
X237163428Y-114046000D01*
X237199714Y-114082285D01*
X237236000Y-114154857D01*
X237236000Y-114227428D01*
X237199714Y-114336285D01*
X236764285Y-114771714D01*
X237236000Y-114771714D01*
X232337428Y-115642571D02*
X232446285Y-115678857D01*
X232482571Y-115715142D01*
X232518857Y-115787714D01*
X232518857Y-115896571D01*
X232482571Y-115969142D01*
X232446285Y-116005428D01*
X232373714Y-116041714D01*
X232083428Y-116041714D01*
X232083428Y-115279714D01*
X232337428Y-115279714D01*
X232410000Y-115316000D01*
X232446285Y-115352285D01*
X232482571Y-115424857D01*
X232482571Y-115497428D01*
X232446285Y-115570000D01*
X232410000Y-115606285D01*
X232337428Y-115642571D01*
X232083428Y-115642571D01*
X233172000Y-116041714D02*
X233172000Y-115642571D01*
X233135714Y-115570000D01*
X233063142Y-115533714D01*
X232918000Y-115533714D01*
X232845428Y-115570000D01*
X233172000Y-116005428D02*
X233099428Y-116041714D01*
X232918000Y-116041714D01*
X232845428Y-116005428D01*
X232809142Y-115932857D01*
X232809142Y-115860285D01*
X232845428Y-115787714D01*
X232918000Y-115751428D01*
X233099428Y-115751428D01*
X233172000Y-115715142D01*
X233426000Y-115533714D02*
X233716285Y-115533714D01*
X233534857Y-115279714D02*
X233534857Y-115932857D01*
X233571142Y-116005428D01*
X233643714Y-116041714D01*
X233716285Y-116041714D01*
X233861428Y-115533714D02*
X234151714Y-115533714D01*
X233970285Y-115279714D02*
X233970285Y-115932857D01*
X234006571Y-116005428D01*
X234079142Y-116041714D01*
X234151714Y-116041714D01*
X234696000Y-116005428D02*
X234623428Y-116041714D01*
X234478285Y-116041714D01*
X234405714Y-116005428D01*
X234369428Y-115932857D01*
X234369428Y-115642571D01*
X234405714Y-115570000D01*
X234478285Y-115533714D01*
X234623428Y-115533714D01*
X234696000Y-115570000D01*
X234732285Y-115642571D01*
X234732285Y-115715142D01*
X234369428Y-115787714D01*
X235058857Y-116041714D02*
X235058857Y-115533714D01*
X235058857Y-115678857D02*
X235095142Y-115606285D01*
X235131428Y-115570000D01*
X235204000Y-115533714D01*
X235276571Y-115533714D01*
X235458000Y-115533714D02*
X235639428Y-116041714D01*
X235820857Y-115533714D02*
X235639428Y-116041714D01*
X235566857Y-116223142D01*
X235530571Y-116259428D01*
X235458000Y-116295714D01*
X236582857Y-115279714D02*
X237018285Y-115279714D01*
X236800571Y-116041714D02*
X236800571Y-115279714D01*
X237199714Y-115533714D02*
X237381142Y-116041714D01*
X237562571Y-115533714D02*
X237381142Y-116041714D01*
X237308571Y-116223142D01*
X237272285Y-116259428D01*
X237199714Y-116295714D01*
X237852857Y-115533714D02*
X237852857Y-116295714D01*
X237852857Y-115570000D02*
X237925428Y-115533714D01*
X238070571Y-115533714D01*
X238143142Y-115570000D01*
X238179428Y-115606285D01*
X238215714Y-115678857D01*
X238215714Y-115896571D01*
X238179428Y-115969142D01*
X238143142Y-116005428D01*
X238070571Y-116041714D01*
X237925428Y-116041714D01*
X237852857Y-116005428D01*
X238832571Y-116005428D02*
X238760000Y-116041714D01*
X238614857Y-116041714D01*
X238542285Y-116005428D01*
X238506000Y-115932857D01*
X238506000Y-115642571D01*
X238542285Y-115570000D01*
X238614857Y-115533714D01*
X238760000Y-115533714D01*
X238832571Y-115570000D01*
X238868857Y-115642571D01*
X238868857Y-115715142D01*
X238506000Y-115787714D01*
D11*
G04 #@! TO.P,BT101,1*
G04 #@! TO.N,Net-(BT101-Pad1)*
X232918000Y-109220000D03*
X232918000Y-112268000D03*
X212090000Y-109220000D03*
X212090000Y-112268000D03*
G04 #@! TO.P,BT101,2*
G04 #@! TO.N,GND*
X222504000Y-101854000D03*
G04 #@! TD*
D12*
G04 #@! TO.P,U101,14*
G04 #@! TO.N,GND*
X226060000Y-134112000D03*
G04 #@! TO.P,U101,7*
G04 #@! TO.N,Net-(R108-Pad2)*
X218440000Y-149352000D03*
G04 #@! TO.P,U101,13*
G04 #@! TO.N,Net-(R101-Pad2)*
X226060000Y-136652000D03*
G04 #@! TO.P,U101,6*
G04 #@! TO.N,Net-(R109-Pad2)*
X218440000Y-146812000D03*
G04 #@! TO.P,U101,12*
G04 #@! TO.N,Net-(R102-Pad2)*
X226060000Y-139192000D03*
G04 #@! TO.P,U101,5*
G04 #@! TO.N,Net-(U101-Pad5)*
X218440000Y-144272000D03*
G04 #@! TO.P,U101,11*
G04 #@! TO.N,Net-(R103-Pad2)*
X226060000Y-141732000D03*
G04 #@! TO.P,U101,4*
G04 #@! TO.N,Net-(U101-Pad4)*
X218440000Y-141732000D03*
G04 #@! TO.P,U101,10*
G04 #@! TO.N,Net-(R104-Pad2)*
X226060000Y-144272000D03*
G04 #@! TO.P,U101,3*
G04 #@! TO.N,Net-(U101-Pad3)*
X218440000Y-139192000D03*
G04 #@! TO.P,U101,9*
G04 #@! TO.N,Net-(R105-Pad2)*
X226060000Y-146812000D03*
G04 #@! TO.P,U101,2*
G04 #@! TO.N,Net-(R110-Pad2)*
X218440000Y-136652000D03*
G04 #@! TO.P,U101,8*
G04 #@! TO.N,Net-(R107-Pad2)*
X226060000Y-149352000D03*
D13*
G04 #@! TO.P,U101,1*
G04 #@! TO.N,Net-(BT101-Pad1)*
X218440000Y-134112000D03*
G04 #@! TD*
D14*
G04 #@! TO.P,D101,2*
G04 #@! TO.N,Net-(D101-Pad2)*
X210820000Y-99060000D03*
D15*
G04 #@! TO.P,D101,1*
G04 #@! TO.N,GND*
X208280000Y-99060000D03*
G04 #@! TD*
G04 #@! TO.P,D103,1*
G04 #@! TO.N,GND*
X193040000Y-124460000D03*
D14*
G04 #@! TO.P,D103,2*
G04 #@! TO.N,Net-(D103-Pad2)*
X195580000Y-124460000D03*
G04 #@! TD*
G04 #@! TO.P,D104,2*
G04 #@! TO.N,Net-(D104-Pad2)*
X223520000Y-128270000D03*
D15*
G04 #@! TO.P,D104,1*
G04 #@! TO.N,GND*
X220980000Y-128270000D03*
G04 #@! TD*
G04 #@! TO.P,D105,1*
G04 #@! TO.N,GND*
X248920000Y-124460000D03*
D14*
G04 #@! TO.P,D105,2*
G04 #@! TO.N,Net-(D105-Pad2)*
X251460000Y-124460000D03*
G04 #@! TD*
G04 #@! TO.P,D106,2*
G04 #@! TO.N,Net-(D106-Pad2)*
X223520000Y-86614000D03*
D15*
G04 #@! TO.P,D106,1*
G04 #@! TO.N,GND*
X220980000Y-86614000D03*
G04 #@! TD*
G04 #@! TO.P,D107,1*
G04 #@! TO.N,GND*
X185420000Y-138430000D03*
D14*
G04 #@! TO.P,D107,2*
G04 #@! TO.N,Net-(D107-Pad2)*
X187960000Y-138430000D03*
G04 #@! TD*
G04 #@! TO.P,D108,2*
G04 #@! TO.N,Net-(D108-Pad2)*
X207010000Y-138430000D03*
D15*
G04 #@! TO.P,D108,1*
G04 #@! TO.N,GND*
X204470000Y-138430000D03*
G04 #@! TD*
G04 #@! TO.P,D109,1*
G04 #@! TO.N,GND*
X237490000Y-138430000D03*
D14*
G04 #@! TO.P,D109,2*
G04 #@! TO.N,Net-(D109-Pad2)*
X240030000Y-138430000D03*
G04 #@! TD*
G04 #@! TO.P,D110,2*
G04 #@! TO.N,Net-(D110-Pad2)*
X259080000Y-138430000D03*
D15*
G04 #@! TO.P,D110,1*
G04 #@! TO.N,GND*
X256540000Y-138430000D03*
G04 #@! TD*
D14*
G04 #@! TO.P,D102,2*
G04 #@! TO.N,Net-(D102-Pad2)*
X236220000Y-99060000D03*
D15*
G04 #@! TO.P,D102,1*
G04 #@! TO.N,GND*
X233680000Y-99060000D03*
G04 #@! TD*
D16*
G04 #@! TO.P,R101,2*
G04 #@! TO.N,Net-(R101-Pad2)*
X213868000Y-100076000D03*
D17*
G04 #@! TO.P,R101,1*
G04 #@! TO.N,Net-(D101-Pad2)*
X213868000Y-94996000D03*
G04 #@! TD*
G04 #@! TO.P,R102,1*
G04 #@! TO.N,Net-(D102-Pad2)*
X230632000Y-100076000D03*
D16*
G04 #@! TO.P,R102,2*
G04 #@! TO.N,Net-(R102-Pad2)*
X230632000Y-94996000D03*
G04 #@! TD*
G04 #@! TO.P,R103,2*
G04 #@! TO.N,Net-(R103-Pad2)*
X203200000Y-124460000D03*
D17*
G04 #@! TO.P,R103,1*
G04 #@! TO.N,Net-(D103-Pad2)*
X198120000Y-124460000D03*
G04 #@! TD*
G04 #@! TO.P,R104,1*
G04 #@! TO.N,Net-(D104-Pad2)*
X219964000Y-124460000D03*
D16*
G04 #@! TO.P,R104,2*
G04 #@! TO.N,Net-(R104-Pad2)*
X225044000Y-124460000D03*
G04 #@! TD*
G04 #@! TO.P,R105,2*
G04 #@! TO.N,Net-(R105-Pad2)*
X241300000Y-124460000D03*
D17*
G04 #@! TO.P,R105,1*
G04 #@! TO.N,Net-(D105-Pad2)*
X246380000Y-124460000D03*
G04 #@! TD*
G04 #@! TO.P,R106,1*
G04 #@! TO.N,Net-(D106-Pad2)*
X225044000Y-89916000D03*
D16*
G04 #@! TO.P,R106,2*
G04 #@! TO.N,Net-(BT101-Pad1)*
X219964000Y-89916000D03*
G04 #@! TD*
G04 #@! TO.P,R107,2*
G04 #@! TO.N,Net-(R107-Pad2)*
X195580000Y-138176000D03*
D17*
G04 #@! TO.P,R107,1*
G04 #@! TO.N,Net-(D107-Pad2)*
X190500000Y-138176000D03*
G04 #@! TD*
G04 #@! TO.P,R108,1*
G04 #@! TO.N,Net-(D108-Pad2)*
X203200000Y-134620000D03*
D16*
G04 #@! TO.P,R108,2*
G04 #@! TO.N,Net-(R108-Pad2)*
X208280000Y-134620000D03*
G04 #@! TD*
G04 #@! TO.P,R109,2*
G04 #@! TO.N,Net-(R109-Pad2)*
X236220000Y-134620000D03*
D17*
G04 #@! TO.P,R109,1*
G04 #@! TO.N,Net-(D109-Pad2)*
X241300000Y-134620000D03*
G04 #@! TD*
G04 #@! TO.P,R110,1*
G04 #@! TO.N,Net-(D110-Pad2)*
X254000000Y-138430000D03*
D16*
G04 #@! TO.P,R110,2*
G04 #@! TO.N,Net-(R110-Pad2)*
X248920000Y-138430000D03*
G04 #@! TD*
D18*
G04 #@! TO.N,Net-(R110-Pad2)*
X228600000Y-140716000D03*
G04 #@! TO.N,Net-(R104-Pad2)*
X222504000Y-135636000D03*
G04 #@! TD*
D19*
G04 #@! TO.N,Net-(R110-Pad2)*
X228201010Y-140317010D02*
X228600000Y-140716000D01*
X222505010Y-140317010D02*
X228201010Y-140317010D01*
X218440000Y-136652000D02*
X218840000Y-136652000D01*
X218840000Y-136652000D02*
X222505010Y-140317010D01*
G04 #@! TO.N,Net-(R109-Pad2)*
X235230051Y-134620000D02*
X232182051Y-137668000D01*
X236220000Y-134620000D02*
X235230051Y-134620000D01*
X232182051Y-137668000D02*
X232156000Y-137668000D01*
X232156000Y-137668000D02*
X231140000Y-138684000D01*
X227021400Y-147937010D02*
X221378990Y-147937010D01*
X231140000Y-138684000D02*
X231140000Y-143818410D01*
X231140000Y-143818410D02*
X227021400Y-147937010D01*
X220253980Y-146812000D02*
X218440000Y-146812000D01*
X221378990Y-147937010D02*
X220253980Y-146812000D01*
G04 #@! TO.N,Net-(D109-Pad2)*
X241300000Y-137160000D02*
X240030000Y-138430000D01*
X241300000Y-134620000D02*
X241300000Y-137160000D01*
G04 #@! TO.N,Net-(R108-Pad2)*
X208979999Y-135319999D02*
X209487999Y-135319999D01*
X208280000Y-134620000D02*
X208979999Y-135319999D01*
X209487999Y-135319999D02*
X214376000Y-140208000D01*
X214376000Y-140208000D02*
X214376000Y-147828000D01*
X215900000Y-149352000D02*
X218440000Y-149352000D01*
X214376000Y-147828000D02*
X215900000Y-149352000D01*
G04 #@! TO.N,Net-(R107-Pad2)*
X226060000Y-149352000D02*
X226060000Y-150876000D01*
X226060000Y-150876000D02*
X224536000Y-152400000D01*
X224536000Y-152400000D02*
X214376000Y-152400000D01*
X214376000Y-152400000D02*
X213868000Y-151892000D01*
X213868000Y-151892000D02*
X213868000Y-140716000D01*
X213868000Y-140716000D02*
X212852000Y-139700000D01*
X197104000Y-139700000D02*
X195580000Y-138176000D01*
X212852000Y-139700000D02*
X197104000Y-139700000D01*
G04 #@! TO.N,Net-(D107-Pad2)*
X190246000Y-138430000D02*
X190500000Y-138176000D01*
X187960000Y-138430000D02*
X190246000Y-138430000D01*
G04 #@! TO.N,Net-(D106-Pad2)*
X223520000Y-88392000D02*
X225044000Y-89916000D01*
X223520000Y-86614000D02*
X223520000Y-88392000D01*
G04 #@! TO.N,Net-(R105-Pad2)*
X227510000Y-146812000D02*
X230632000Y-143690000D01*
X226060000Y-146812000D02*
X227510000Y-146812000D01*
X230632000Y-143690000D02*
X230632000Y-130556000D01*
X236728000Y-124460000D02*
X241300000Y-124460000D01*
X230632000Y-130556000D02*
X236728000Y-124460000D01*
G04 #@! TO.N,Net-(R104-Pad2)*
X225044000Y-124460000D02*
X225044000Y-133096000D01*
X225044000Y-133096000D02*
X222504000Y-135636000D01*
G04 #@! TO.N,Net-(R103-Pad2)*
X224610000Y-141732000D02*
X226060000Y-141732000D01*
X223484990Y-142857010D02*
X224610000Y-141732000D01*
X217574006Y-142857010D02*
X223484990Y-142857010D01*
X214826010Y-140109014D02*
X217574006Y-142857010D01*
X214826010Y-136086010D02*
X214826010Y-140109014D01*
X203200000Y-124460000D02*
X214826010Y-136086010D01*
G04 #@! TO.N,Net-(D103-Pad2)*
X195580000Y-124460000D02*
X198120000Y-124460000D01*
G04 #@! TO.N,Net-(R102-Pad2)*
X227510000Y-139192000D02*
X226060000Y-139192000D01*
X227712410Y-139192000D02*
X227510000Y-139192000D01*
X230124000Y-136780410D02*
X227712410Y-139192000D01*
X230632000Y-94996000D02*
X229606999Y-96021001D01*
X229606999Y-96021001D02*
X229606999Y-106689001D01*
X227526010Y-108769990D02*
X227526010Y-125797600D01*
X227526010Y-125797600D02*
X230124000Y-128395590D01*
X229606999Y-106689001D02*
X227526010Y-108769990D01*
X230124000Y-128395590D02*
X230124000Y-136780410D01*
G04 #@! TO.N,Net-(R101-Pad2)*
X214567999Y-100775999D02*
X214567999Y-102299999D01*
X213868000Y-100076000D02*
X214567999Y-100775999D01*
X214567999Y-102299999D02*
X227076000Y-114808000D01*
X227076000Y-114808000D02*
X227076000Y-125984000D01*
X227076000Y-125984000D02*
X229616000Y-128524000D01*
X229616000Y-128524000D02*
X229616000Y-136652000D01*
X229616000Y-136652000D02*
X226060000Y-136652000D01*
G04 #@! TO.N,GND*
X245887999Y-123434999D02*
X243332000Y-125990998D01*
X248920000Y-124460000D02*
X247894999Y-123434999D01*
X247894999Y-123434999D02*
X245887999Y-123434999D01*
X237490000Y-137280000D02*
X237490000Y-138430000D01*
X237490000Y-134366000D02*
X237490000Y-137280000D01*
X243332000Y-128524000D02*
X237490000Y-134366000D01*
X243332000Y-125990998D02*
X243332000Y-128524000D01*
X247784000Y-128524000D02*
X243332000Y-128524000D01*
X256540000Y-137280000D02*
X247784000Y-128524000D01*
X256540000Y-138430000D02*
X256540000Y-137280000D01*
G04 #@! TO.N,Net-(BT101-Pad1)*
X231648001Y-110998001D02*
X232918000Y-112268000D01*
X231648001Y-110489999D02*
X231648001Y-110998001D01*
X232918000Y-109220000D02*
X231648001Y-110489999D01*
X213359999Y-110489999D02*
X212090000Y-109220000D01*
X213359999Y-110998001D02*
X213359999Y-110489999D01*
X212090000Y-112268000D02*
X213359999Y-110998001D01*
X220663999Y-90615999D02*
X219964000Y-89916000D01*
X220989001Y-90941001D02*
X220663999Y-90615999D01*
X228094003Y-90941001D02*
X220989001Y-90941001D01*
X231657001Y-94503999D02*
X228094003Y-90941001D01*
X231657001Y-101831003D02*
X231657001Y-94503999D01*
X231263501Y-102224503D02*
X231657001Y-101831003D01*
X231263501Y-110613501D02*
X231263501Y-102224503D01*
X232918000Y-112268000D02*
X231263501Y-110613501D01*
G04 #@! TD*
M02*
