G04 #@! TF.GenerationSoftware,KiCad,Pcbnew,(5.0.0)*
G04 #@! TF.CreationDate,2018-12-05T15:31:39-05:00*
G04 #@! TF.ProjectId,Christmas Ornament,4368726973746D6173204F726E616D65,rev?*
G04 #@! TF.SameCoordinates,Original*
G04 #@! TF.FileFunction,Legend,Bot*
G04 #@! TF.FilePolarity,Positive*
%FSLAX46Y46*%
G04 Gerber Fmt 4.6, Leading zero omitted, Abs format (unit mm)*
G04 Created by KiCad (PCBNEW (5.0.0)) date 12/05/18 15:31:39*
%MOMM*%
%LPD*%
G01*
G04 APERTURE LIST*
%ADD10C,0.150000*%
G04 APERTURE END LIST*
G04 #@! TO.C,BT101*
D10*
X224242095Y-119697571D02*
X224099238Y-119745190D01*
X224051619Y-119792809D01*
X224004000Y-119888047D01*
X224004000Y-120030904D01*
X224051619Y-120126142D01*
X224099238Y-120173761D01*
X224194476Y-120221380D01*
X224575428Y-120221380D01*
X224575428Y-119221380D01*
X224242095Y-119221380D01*
X224146857Y-119269000D01*
X224099238Y-119316619D01*
X224051619Y-119411857D01*
X224051619Y-119507095D01*
X224099238Y-119602333D01*
X224146857Y-119649952D01*
X224242095Y-119697571D01*
X224575428Y-119697571D01*
X223718285Y-119221380D02*
X223146857Y-119221380D01*
X223432571Y-120221380D02*
X223432571Y-119221380D01*
X222289714Y-120221380D02*
X222861142Y-120221380D01*
X222575428Y-120221380D02*
X222575428Y-119221380D01*
X222670666Y-119364238D01*
X222765904Y-119459476D01*
X222861142Y-119507095D01*
X221670666Y-119221380D02*
X221575428Y-119221380D01*
X221480190Y-119269000D01*
X221432571Y-119316619D01*
X221384952Y-119411857D01*
X221337333Y-119602333D01*
X221337333Y-119840428D01*
X221384952Y-120030904D01*
X221432571Y-120126142D01*
X221480190Y-120173761D01*
X221575428Y-120221380D01*
X221670666Y-120221380D01*
X221765904Y-120173761D01*
X221813523Y-120126142D01*
X221861142Y-120030904D01*
X221908761Y-119840428D01*
X221908761Y-119602333D01*
X221861142Y-119411857D01*
X221813523Y-119316619D01*
X221765904Y-119269000D01*
X221670666Y-119221380D01*
X220384952Y-120221380D02*
X220956380Y-120221380D01*
X220670666Y-120221380D02*
X220670666Y-119221380D01*
X220765904Y-119364238D01*
X220861142Y-119459476D01*
X220956380Y-119507095D01*
G04 #@! TD*
M02*
