G04 #@! TF.GenerationSoftware,KiCad,Pcbnew,(5.0.0)*
G04 #@! TF.CreationDate,2018-12-05T15:31:39-05:00*
G04 #@! TF.ProjectId,Christmas Ornament,4368726973746D6173204F726E616D65,rev?*
G04 #@! TF.SameCoordinates,Original*
G04 #@! TF.FileFunction,Profile,NP*
%FSLAX46Y46*%
G04 Gerber Fmt 4.6, Leading zero omitted, Abs format (unit mm)*
G04 Created by KiCad (PCBNEW (5.0.0)) date 12/05/18 15:31:39*
%MOMM*%
%LPD*%
G01*
G04 APERTURE LIST*
%ADD10C,0.150000*%
%ADD11C,0.200000*%
G04 APERTURE END LIST*
D10*
X231648000Y-140208000D02*
X263906000Y-140208000D01*
D11*
X197358000Y-125984000D02*
X180594000Y-140208000D01*
X187198000Y-125984000D02*
X197358000Y-125984000D01*
X187452000Y-125730000D02*
X187198000Y-125984000D01*
X212344000Y-102108000D02*
X187452000Y-125730000D01*
X202184000Y-102108000D02*
X212344000Y-102108000D01*
X202438000Y-101854000D02*
X202184000Y-102108000D01*
X202692000Y-101600000D02*
X202438000Y-101854000D01*
X222250000Y-82042000D02*
X202692000Y-101600000D01*
X242316000Y-102108000D02*
X222250000Y-82042000D01*
X242062000Y-102108000D02*
X242316000Y-102108000D01*
X241808000Y-102108000D02*
X242062000Y-102108000D01*
X232156000Y-102108000D02*
X241808000Y-102108000D01*
X257302000Y-125984000D02*
X232156000Y-102108000D01*
X257048000Y-125984000D02*
X257302000Y-125984000D01*
X256794000Y-125984000D02*
X257048000Y-125984000D01*
X247142000Y-125984000D02*
X256794000Y-125984000D01*
X263906000Y-140208000D02*
X247142000Y-125984000D01*
D10*
X231648000Y-152908000D02*
X231648000Y-140208000D01*
X212852000Y-152908000D02*
X231648000Y-152908000D01*
X212852000Y-140208000D02*
X212852000Y-152908000D01*
X212852000Y-140208000D02*
X180594000Y-140208000D01*
M02*
