G04 #@! TF.GenerationSoftware,KiCad,Pcbnew,(5.0.0)*
G04 #@! TF.CreationDate,2018-12-05T15:31:39-05:00*
G04 #@! TF.ProjectId,Christmas Ornament,4368726973746D6173204F726E616D65,rev?*
G04 #@! TF.SameCoordinates,Original*
G04 #@! TF.FileFunction,Copper,L2,Bot,Signal*
G04 #@! TF.FilePolarity,Positive*
%FSLAX46Y46*%
G04 Gerber Fmt 4.6, Leading zero omitted, Abs format (unit mm)*
G04 Created by KiCad (PCBNEW (5.0.0)) date 12/05/18 15:31:39*
%MOMM*%
%LPD*%
G01*
G04 APERTURE LIST*
G04 #@! TA.AperFunction,ComponentPad*
%ADD10C,2.540000*%
G04 #@! TD*
G04 #@! TA.AperFunction,BGAPad,CuDef*
%ADD11C,17.780000*%
G04 #@! TD*
G04 #@! TA.AperFunction,ComponentPad*
%ADD12O,2.400000X1.600000*%
G04 #@! TD*
G04 #@! TA.AperFunction,ComponentPad*
%ADD13R,2.400000X1.600000*%
G04 #@! TD*
G04 #@! TA.AperFunction,ComponentPad*
%ADD14C,1.800000*%
G04 #@! TD*
G04 #@! TA.AperFunction,ComponentPad*
%ADD15R,1.800000X1.800000*%
G04 #@! TD*
G04 #@! TA.AperFunction,ComponentPad*
%ADD16O,1.400000X1.400000*%
G04 #@! TD*
G04 #@! TA.AperFunction,ComponentPad*
%ADD17C,1.400000*%
G04 #@! TD*
G04 #@! TA.AperFunction,ViaPad*
%ADD18C,0.800000*%
G04 #@! TD*
G04 #@! TA.AperFunction,Conductor*
%ADD19C,0.250000*%
G04 #@! TD*
G04 APERTURE END LIST*
D10*
G04 #@! TO.P,BT101,1*
G04 #@! TO.N,Net-(BT101-Pad1)*
X232918000Y-109220000D03*
X232918000Y-112268000D03*
X212090000Y-109220000D03*
X212090000Y-112268000D03*
D11*
G04 #@! TO.P,BT101,2*
G04 #@! TO.N,GND*
X222504000Y-110744000D03*
D10*
X222504000Y-101854000D03*
G04 #@! TD*
D12*
G04 #@! TO.P,U101,14*
G04 #@! TO.N,GND*
X226060000Y-134112000D03*
G04 #@! TO.P,U101,7*
G04 #@! TO.N,Net-(R108-Pad2)*
X218440000Y-149352000D03*
G04 #@! TO.P,U101,13*
G04 #@! TO.N,Net-(R101-Pad2)*
X226060000Y-136652000D03*
G04 #@! TO.P,U101,6*
G04 #@! TO.N,Net-(R109-Pad2)*
X218440000Y-146812000D03*
G04 #@! TO.P,U101,12*
G04 #@! TO.N,Net-(R102-Pad2)*
X226060000Y-139192000D03*
G04 #@! TO.P,U101,5*
G04 #@! TO.N,Net-(U101-Pad5)*
X218440000Y-144272000D03*
G04 #@! TO.P,U101,11*
G04 #@! TO.N,Net-(R103-Pad2)*
X226060000Y-141732000D03*
G04 #@! TO.P,U101,4*
G04 #@! TO.N,Net-(U101-Pad4)*
X218440000Y-141732000D03*
G04 #@! TO.P,U101,10*
G04 #@! TO.N,Net-(R104-Pad2)*
X226060000Y-144272000D03*
G04 #@! TO.P,U101,3*
G04 #@! TO.N,Net-(U101-Pad3)*
X218440000Y-139192000D03*
G04 #@! TO.P,U101,9*
G04 #@! TO.N,Net-(R105-Pad2)*
X226060000Y-146812000D03*
G04 #@! TO.P,U101,2*
G04 #@! TO.N,Net-(R110-Pad2)*
X218440000Y-136652000D03*
G04 #@! TO.P,U101,8*
G04 #@! TO.N,Net-(R107-Pad2)*
X226060000Y-149352000D03*
D13*
G04 #@! TO.P,U101,1*
G04 #@! TO.N,Net-(BT101-Pad1)*
X218440000Y-134112000D03*
G04 #@! TD*
D14*
G04 #@! TO.P,D101,2*
G04 #@! TO.N,Net-(D101-Pad2)*
X210820000Y-99060000D03*
D15*
G04 #@! TO.P,D101,1*
G04 #@! TO.N,GND*
X208280000Y-99060000D03*
G04 #@! TD*
G04 #@! TO.P,D103,1*
G04 #@! TO.N,GND*
X193040000Y-124460000D03*
D14*
G04 #@! TO.P,D103,2*
G04 #@! TO.N,Net-(D103-Pad2)*
X195580000Y-124460000D03*
G04 #@! TD*
G04 #@! TO.P,D104,2*
G04 #@! TO.N,Net-(D104-Pad2)*
X223520000Y-128270000D03*
D15*
G04 #@! TO.P,D104,1*
G04 #@! TO.N,GND*
X220980000Y-128270000D03*
G04 #@! TD*
G04 #@! TO.P,D105,1*
G04 #@! TO.N,GND*
X248920000Y-124460000D03*
D14*
G04 #@! TO.P,D105,2*
G04 #@! TO.N,Net-(D105-Pad2)*
X251460000Y-124460000D03*
G04 #@! TD*
G04 #@! TO.P,D106,2*
G04 #@! TO.N,Net-(D106-Pad2)*
X223520000Y-86614000D03*
D15*
G04 #@! TO.P,D106,1*
G04 #@! TO.N,GND*
X220980000Y-86614000D03*
G04 #@! TD*
G04 #@! TO.P,D107,1*
G04 #@! TO.N,GND*
X185420000Y-138430000D03*
D14*
G04 #@! TO.P,D107,2*
G04 #@! TO.N,Net-(D107-Pad2)*
X187960000Y-138430000D03*
G04 #@! TD*
G04 #@! TO.P,D108,2*
G04 #@! TO.N,Net-(D108-Pad2)*
X207010000Y-138430000D03*
D15*
G04 #@! TO.P,D108,1*
G04 #@! TO.N,GND*
X204470000Y-138430000D03*
G04 #@! TD*
G04 #@! TO.P,D109,1*
G04 #@! TO.N,GND*
X237490000Y-138430000D03*
D14*
G04 #@! TO.P,D109,2*
G04 #@! TO.N,Net-(D109-Pad2)*
X240030000Y-138430000D03*
G04 #@! TD*
G04 #@! TO.P,D110,2*
G04 #@! TO.N,Net-(D110-Pad2)*
X259080000Y-138430000D03*
D15*
G04 #@! TO.P,D110,1*
G04 #@! TO.N,GND*
X256540000Y-138430000D03*
G04 #@! TD*
D14*
G04 #@! TO.P,D102,2*
G04 #@! TO.N,Net-(D102-Pad2)*
X236220000Y-99060000D03*
D15*
G04 #@! TO.P,D102,1*
G04 #@! TO.N,GND*
X233680000Y-99060000D03*
G04 #@! TD*
D16*
G04 #@! TO.P,R101,2*
G04 #@! TO.N,Net-(R101-Pad2)*
X213868000Y-100076000D03*
D17*
G04 #@! TO.P,R101,1*
G04 #@! TO.N,Net-(D101-Pad2)*
X213868000Y-94996000D03*
G04 #@! TD*
G04 #@! TO.P,R102,1*
G04 #@! TO.N,Net-(D102-Pad2)*
X230632000Y-100076000D03*
D16*
G04 #@! TO.P,R102,2*
G04 #@! TO.N,Net-(R102-Pad2)*
X230632000Y-94996000D03*
G04 #@! TD*
G04 #@! TO.P,R103,2*
G04 #@! TO.N,Net-(R103-Pad2)*
X203200000Y-124460000D03*
D17*
G04 #@! TO.P,R103,1*
G04 #@! TO.N,Net-(D103-Pad2)*
X198120000Y-124460000D03*
G04 #@! TD*
G04 #@! TO.P,R104,1*
G04 #@! TO.N,Net-(D104-Pad2)*
X219964000Y-124460000D03*
D16*
G04 #@! TO.P,R104,2*
G04 #@! TO.N,Net-(R104-Pad2)*
X225044000Y-124460000D03*
G04 #@! TD*
G04 #@! TO.P,R105,2*
G04 #@! TO.N,Net-(R105-Pad2)*
X241300000Y-124460000D03*
D17*
G04 #@! TO.P,R105,1*
G04 #@! TO.N,Net-(D105-Pad2)*
X246380000Y-124460000D03*
G04 #@! TD*
G04 #@! TO.P,R106,1*
G04 #@! TO.N,Net-(D106-Pad2)*
X225044000Y-89916000D03*
D16*
G04 #@! TO.P,R106,2*
G04 #@! TO.N,Net-(BT101-Pad1)*
X219964000Y-89916000D03*
G04 #@! TD*
G04 #@! TO.P,R107,2*
G04 #@! TO.N,Net-(R107-Pad2)*
X195580000Y-138176000D03*
D17*
G04 #@! TO.P,R107,1*
G04 #@! TO.N,Net-(D107-Pad2)*
X190500000Y-138176000D03*
G04 #@! TD*
G04 #@! TO.P,R108,1*
G04 #@! TO.N,Net-(D108-Pad2)*
X203200000Y-134620000D03*
D16*
G04 #@! TO.P,R108,2*
G04 #@! TO.N,Net-(R108-Pad2)*
X208280000Y-134620000D03*
G04 #@! TD*
G04 #@! TO.P,R109,2*
G04 #@! TO.N,Net-(R109-Pad2)*
X236220000Y-134620000D03*
D17*
G04 #@! TO.P,R109,1*
G04 #@! TO.N,Net-(D109-Pad2)*
X241300000Y-134620000D03*
G04 #@! TD*
G04 #@! TO.P,R110,1*
G04 #@! TO.N,Net-(D110-Pad2)*
X254000000Y-138430000D03*
D16*
G04 #@! TO.P,R110,2*
G04 #@! TO.N,Net-(R110-Pad2)*
X248920000Y-138430000D03*
G04 #@! TD*
D18*
G04 #@! TO.N,Net-(R110-Pad2)*
X228600000Y-140716000D03*
G04 #@! TO.N,Net-(R104-Pad2)*
X222504000Y-135636000D03*
G04 #@! TD*
D19*
G04 #@! TO.N,Net-(D110-Pad2)*
X254699999Y-137730001D02*
X254000000Y-138430000D01*
X255225001Y-137204999D02*
X254699999Y-137730001D01*
X257854999Y-137204999D02*
X255225001Y-137204999D01*
X259080000Y-138430000D02*
X257854999Y-137204999D01*
G04 #@! TO.N,Net-(R110-Pad2)*
X246634000Y-136144000D02*
X248920000Y-138430000D01*
X228600000Y-140716000D02*
X233172000Y-136144000D01*
X233172000Y-136144000D02*
X246634000Y-136144000D01*
G04 #@! TO.N,Net-(D108-Pad2)*
X203200000Y-134620000D02*
X207010000Y-138430000D01*
G04 #@! TO.N,Net-(D105-Pad2)*
X250560001Y-125359999D02*
X251460000Y-124460000D01*
X250234999Y-125685001D02*
X250560001Y-125359999D01*
X247605001Y-125685001D02*
X250234999Y-125685001D01*
X246380000Y-124460000D02*
X247605001Y-125685001D01*
G04 #@! TO.N,Net-(D104-Pad2)*
X223520000Y-128016000D02*
X223520000Y-128270000D01*
X219964000Y-124460000D02*
X223520000Y-128016000D01*
G04 #@! TO.N,Net-(R104-Pad2)*
X225660000Y-144272000D02*
X226060000Y-144272000D01*
X222504000Y-141116000D02*
X225660000Y-144272000D01*
X222504000Y-135636000D02*
X222504000Y-141116000D01*
G04 #@! TO.N,Net-(D102-Pad2)*
X235320001Y-99959999D02*
X236220000Y-99060000D01*
X234994999Y-100285001D02*
X235320001Y-99959999D01*
X232519999Y-100285001D02*
X234994999Y-100285001D01*
X232310998Y-100076000D02*
X232519999Y-100285001D01*
X230632000Y-100076000D02*
X232310998Y-100076000D01*
G04 #@! TO.N,Net-(D101-Pad2)*
X210820000Y-97787208D02*
X210820000Y-99060000D01*
X212911209Y-95695999D02*
X210820000Y-97787208D01*
X213168001Y-95695999D02*
X212911209Y-95695999D01*
X213868000Y-94996000D02*
X213168001Y-95695999D01*
G04 #@! TO.N,GND*
X219964000Y-110744000D02*
X222504000Y-110744000D01*
X213614001Y-117093999D02*
X219964000Y-110744000D01*
X213614001Y-119754001D02*
X213614001Y-117093999D01*
X220980000Y-128270000D02*
X220980000Y-127120000D01*
X232520999Y-99050999D02*
X227593001Y-99050999D01*
X233680000Y-99060000D02*
X232530000Y-99060000D01*
X232530000Y-99060000D02*
X232520999Y-99050999D01*
X222504000Y-104140000D02*
X222504000Y-110744000D01*
X227593001Y-99050999D02*
X222504000Y-104140000D01*
X208280000Y-99060000D02*
X208280000Y-97910000D01*
X231393999Y-129178001D02*
X231393999Y-119633999D01*
X226460000Y-134112000D02*
X231393999Y-129178001D01*
X226060000Y-134112000D02*
X226460000Y-134112000D01*
X231393999Y-119633999D02*
X222504000Y-110744000D01*
X245692601Y-119633999D02*
X231393999Y-119633999D01*
X248920000Y-122861398D02*
X245692601Y-119633999D01*
X248920000Y-124460000D02*
X248920000Y-122861398D01*
X185420000Y-137280000D02*
X185420000Y-138430000D01*
X185549001Y-137150999D02*
X185420000Y-137280000D01*
X202040999Y-137150999D02*
X185549001Y-137150999D01*
X203320000Y-138430000D02*
X202040999Y-137150999D01*
X204470000Y-138430000D02*
X203320000Y-138430000D01*
X193040000Y-123310000D02*
X193040000Y-124460000D01*
X197605002Y-122428000D02*
X193922000Y-122428000D01*
X193922000Y-122428000D02*
X193040000Y-123310000D01*
X202040999Y-126863997D02*
X197605002Y-122428000D01*
X220980000Y-129420000D02*
X220980000Y-128270000D01*
X219900001Y-135237001D02*
X220980000Y-134157002D01*
X216979999Y-135237001D02*
X219900001Y-135237001D01*
X213314998Y-131572000D02*
X216979999Y-135237001D01*
X202040999Y-131572000D02*
X213314998Y-131572000D01*
X220980000Y-134157002D02*
X220980000Y-129420000D01*
X202040999Y-137150999D02*
X202040999Y-131572000D01*
X202040999Y-131572000D02*
X202040999Y-126863997D01*
X222504000Y-98171642D02*
X222504000Y-110744000D01*
X222504000Y-89288000D02*
X222504000Y-98171642D01*
X220980000Y-87764000D02*
X222504000Y-89288000D01*
X220980000Y-86614000D02*
X220980000Y-87764000D01*
X219576000Y-86614000D02*
X220980000Y-86614000D01*
X208280000Y-97910000D02*
X219576000Y-86614000D01*
X220980000Y-127120000D02*
X213614001Y-119754001D01*
G04 #@! TO.N,Net-(BT101-Pad1)*
X218040000Y-134112000D02*
X218440000Y-134112000D01*
X212090000Y-128162000D02*
X218040000Y-134112000D01*
X212090000Y-112268000D02*
X212090000Y-128162000D01*
X219264001Y-90615999D02*
X219964000Y-89916000D01*
X219264001Y-91117001D02*
X219264001Y-90615999D01*
X212090000Y-98291002D02*
X219264001Y-91117001D01*
X212090000Y-109220000D02*
X212090000Y-98291002D01*
G04 #@! TD*
M02*
