G04 #@! TF.GenerationSoftware,KiCad,Pcbnew,(5.0.0)*
G04 #@! TF.CreationDate,2018-12-05T15:31:39-05:00*
G04 #@! TF.ProjectId,Christmas Ornament,4368726973746D6173204F726E616D65,rev?*
G04 #@! TF.SameCoordinates,Original*
G04 #@! TF.FileFunction,Soldermask,Bot*
G04 #@! TF.FilePolarity,Negative*
%FSLAX46Y46*%
G04 Gerber Fmt 4.6, Leading zero omitted, Abs format (unit mm)*
G04 Created by KiCad (PCBNEW (5.0.0)) date 12/05/18 15:31:39*
%MOMM*%
%LPD*%
G01*
G04 APERTURE LIST*
%ADD10C,1.416000*%
%ADD11C,2.940000*%
%ADD12C,18.180000*%
%ADD13O,2.800000X2.000000*%
%ADD14R,2.800000X2.000000*%
%ADD15C,2.200000*%
%ADD16R,2.200000X2.200000*%
%ADD17O,1.800000X1.800000*%
%ADD18C,1.800000*%
G04 APERTURE END LIST*
D10*
G04 #@! TO.C,MK101*
X222250000Y-83566000D03*
G04 #@! TD*
D11*
G04 #@! TO.C,BT101*
X232918000Y-109220000D03*
X232918000Y-112268000D03*
X212090000Y-109220000D03*
X212090000Y-112268000D03*
D12*
X222504000Y-110744000D03*
D11*
X222504000Y-101854000D03*
G04 #@! TD*
D13*
G04 #@! TO.C,U101*
X226060000Y-134112000D03*
X218440000Y-149352000D03*
X226060000Y-136652000D03*
X218440000Y-146812000D03*
X226060000Y-139192000D03*
X218440000Y-144272000D03*
X226060000Y-141732000D03*
X218440000Y-141732000D03*
X226060000Y-144272000D03*
X218440000Y-139192000D03*
X226060000Y-146812000D03*
X218440000Y-136652000D03*
X226060000Y-149352000D03*
D14*
X218440000Y-134112000D03*
G04 #@! TD*
D15*
G04 #@! TO.C,D101*
X210820000Y-99060000D03*
D16*
X208280000Y-99060000D03*
G04 #@! TD*
G04 #@! TO.C,D103*
X193040000Y-124460000D03*
D15*
X195580000Y-124460000D03*
G04 #@! TD*
G04 #@! TO.C,D104*
X223520000Y-128270000D03*
D16*
X220980000Y-128270000D03*
G04 #@! TD*
G04 #@! TO.C,D105*
X248920000Y-124460000D03*
D15*
X251460000Y-124460000D03*
G04 #@! TD*
G04 #@! TO.C,D106*
X223520000Y-86614000D03*
D16*
X220980000Y-86614000D03*
G04 #@! TD*
G04 #@! TO.C,D107*
X185420000Y-138430000D03*
D15*
X187960000Y-138430000D03*
G04 #@! TD*
G04 #@! TO.C,D108*
X207010000Y-138430000D03*
D16*
X204470000Y-138430000D03*
G04 #@! TD*
G04 #@! TO.C,D109*
X237490000Y-138430000D03*
D15*
X240030000Y-138430000D03*
G04 #@! TD*
G04 #@! TO.C,D110*
X259080000Y-138430000D03*
D16*
X256540000Y-138430000D03*
G04 #@! TD*
D15*
G04 #@! TO.C,D102*
X236220000Y-99060000D03*
D16*
X233680000Y-99060000D03*
G04 #@! TD*
D17*
G04 #@! TO.C,R101*
X213868000Y-100076000D03*
D18*
X213868000Y-94996000D03*
G04 #@! TD*
G04 #@! TO.C,R102*
X230632000Y-100076000D03*
D17*
X230632000Y-94996000D03*
G04 #@! TD*
G04 #@! TO.C,R103*
X203200000Y-124460000D03*
D18*
X198120000Y-124460000D03*
G04 #@! TD*
G04 #@! TO.C,R104*
X219964000Y-124460000D03*
D17*
X225044000Y-124460000D03*
G04 #@! TD*
G04 #@! TO.C,R105*
X241300000Y-124460000D03*
D18*
X246380000Y-124460000D03*
G04 #@! TD*
G04 #@! TO.C,R106*
X225044000Y-89916000D03*
D17*
X219964000Y-89916000D03*
G04 #@! TD*
G04 #@! TO.C,R107*
X195580000Y-138176000D03*
D18*
X190500000Y-138176000D03*
G04 #@! TD*
G04 #@! TO.C,R108*
X203200000Y-134620000D03*
D17*
X208280000Y-134620000D03*
G04 #@! TD*
G04 #@! TO.C,R109*
X236220000Y-134620000D03*
D18*
X241300000Y-134620000D03*
G04 #@! TD*
G04 #@! TO.C,R110*
X254000000Y-138430000D03*
D17*
X248920000Y-138430000D03*
G04 #@! TD*
M02*
