M48
;DRILL file {KiCad (5.0.0)} date 12/05/18 15:31:42
;FORMAT={-:-/ absolute / inch / decimal}
FMAT,2
INCH,TZ
T1C0.0157
T2C0.0276
T3C0.0315
T4C0.0354
T5C0.0500
%
G90
G05
M72
T1
X8.76Y-5.34
X9.Y-5.54
T2
X8.66Y-4.9
X8.86Y-4.9
X8.66Y-3.54
X8.86Y-3.54
X8.Y-5.3
X8.2Y-5.3
X7.8Y-4.9
X8.Y-4.9
X7.5Y-5.44
X7.7Y-5.44
X9.5Y-4.9
X9.7Y-4.9
X9.8Y-5.45
X10.Y-5.45
X9.3Y-5.3
X9.5Y-5.3
X8.42Y-3.74
X8.42Y-3.94
X9.08Y-3.74
X9.08Y-3.94
T3
X8.6Y-5.28
X8.6Y-5.38
X8.6Y-5.48
X8.6Y-5.58
X8.6Y-5.68
X8.6Y-5.78
X8.6Y-5.88
X8.9Y-5.28
X8.9Y-5.38
X8.9Y-5.48
X8.9Y-5.58
X8.9Y-5.68
X8.9Y-5.78
X8.9Y-5.88
T4
X9.8Y-4.9
X9.9Y-4.9
X7.3Y-5.45
X7.4Y-5.45
X8.7Y-3.41
X8.8Y-3.41
X10.1Y-5.45
X10.2Y-5.45
X9.2Y-3.9
X9.3Y-3.9
X8.7Y-5.05
X8.8Y-5.05
X8.2Y-3.9
X8.3Y-3.9
X7.6Y-4.9
X7.7Y-4.9
X8.05Y-5.45
X8.15Y-5.45
X9.35Y-5.45
X9.45Y-5.45
T5
X8.35Y-4.3
X8.35Y-4.42
X8.76Y-4.01
X9.17Y-4.3
X9.17Y-4.42
T0
M30
